<svg xmlns="http://www.w3.org/2000/svg" xmlns:xlink="http://www.w3.org/1999/xlink" width="1280" zoomAndPan="magnify" viewBox="0 0 960 540.000001" height="720" preserveAspectRatio="xMidYMid meet" version="1.0"><defs><g/><clipPath id="id1"><path d="M 0.886719 0 L 959.113281 0 L 959.113281 539 L 0.886719 539 Z M 0.886719 0 " clip-rule="nonzero"/></clipPath><clipPath id="id2"><path d="M 430 187 L 904 187 L 904 539 L 430 539 Z M 430 187 " clip-rule="nonzero"/></clipPath><clipPath id="id3"><path d="M 429.3125 186.128906 L 904.734375 186.128906 L 904.734375 539 L 429.3125 539 Z M 429.3125 186.128906 " clip-rule="nonzero"/></clipPath></defs><g clip-path="url(#id1)"><path fill="#ffffff" d="M 0.886719 0 L 959.113281 0 L 959.113281 546.488281 L 0.886719 546.488281 Z M 0.886719 0 " fill-opacity="1" fill-rule="nonzero"/><path fill="#14a800" d="M 0.886719 0 L 959.113281 0 L 959.113281 539 L 0.886719 539 Z M 0.886719 0 " fill-opacity="1" fill-rule="nonzero"/><path fill="#ffffff" d="M 0.886719 0 L 959.113281 0 L 959.113281 539 L 0.886719 539 Z M 0.886719 0 " fill-opacity="1" fill-rule="nonzero"/><path fill="#14a800" d="M 0.886719 0 L 959.113281 0 L 959.113281 539 L 0.886719 539 Z M 0.886719 0 " fill-opacity="1" fill-rule="nonzero"/></g><g clip-path="url(#id2)"><path fill="#ffffff" d="M 901.890625 555.703125 L 817.078125 543.21875 L 817.265625 540.800781 C 821.96875 541.691406 827.132812 542.023438 827.132812 542.023438 L 838.894531 541.96875 C 838.894531 541.96875 838.855469 541.964844 838.84375 541.964844 L 838.921875 540.699219 C 841.320312 540.648438 843.269531 540.574219 844.59375 540.472656 C 862.402344 539.113281 878.984375 520.3125 880.835938 505.675781 L 880.964844 504.558594 C 881.492188 500.5 881.945312 497.003906 881.597656 492.769531 C 880.5 478.820312 870.3125 465.429688 861.324219 453.601562 C 858.9375 450.464844 856.632812 447.402344 854.601562 444.523438 C 847.019531 433.667969 835.003906 420.742188 823.375 408.222656 C 816.507812 400.820312 810.023438 393.824219 804.871094 387.722656 C 790.585938 370.71875 771.460938 357.480469 763.03125 353.882812 C 753.1875 349.679688 741.304688 347.027344 728.613281 346.214844 L 716.84375 344.972656 C 712.226562 344.015625 693.589844 340.59375 690.445312 340.023438 L 690.0625 339.953125 L 689.785156 339.683594 C 687.460938 337.425781 687.742188 333.796875 687.964844 330.929688 L 688.070312 329.25 C 688.167969 326.453125 688.226562 324.417969 688.246094 322.167969 L 688.304688 318.117188 L 688.789062 317.746094 C 691.609375 315.546875 694.042969 313.15625 696.027344 310.65625 C 700.769531 304.640625 704.355469 296.820312 706.382812 288.035156 C 706.863281 285.824219 707.328125 283.683594 707.757812 281.542969 L 707.859375 281.046875 L 708.277344 280.753906 C 712.628906 277.714844 715.511719 272.984375 716.191406 267.765625 C 716.699219 263.945312 714.417969 260.691406 712.050781 260.164062 L 710.953125 259.917969 L 711.054688 258.800781 C 712.585938 242.1875 711.546875 229.039062 707.796875 217.414062 C 702.78125 202.007812 691.480469 191.601562 676.796875 188.855469 C 669.730469 187.523438 662.371094 187.472656 655.25 187.421875 L 651.144531 187.410156 C 644.023438 187.410156 638.113281 187.746094 632.414062 189.386719 C 625.957031 191.238281 616.929688 196.234375 612.378906 202.824219 C 610.410156 205.703125 606.839844 211.414062 605.027344 217.414062 C 601.253906 229.011719 600.210938 242.171875 601.742188 258.828125 L 601.886719 260.394531 L 600.328125 260.214844 C 600.203125 260.203125 600.085938 260.195312 599.964844 260.195312 C 597.480469 260.195312 595.136719 263.367188 594.953125 266.988281 C 594.582031 273.5625 599.738281 279.488281 604.691406 282.21875 L 605.199219 282.496094 L 605.46875 283.742188 C 605.773438 285.179688 606.085938 286.636719 606.4375 288.15625 C 608.4375 296.882812 612.019531 304.691406 616.792969 310.730469 C 618.707031 313.132812 620.972656 315.386719 623.511719 317.425781 L 623.984375 317.800781 L 624.070312 322.1875 C 624.09375 324.421875 624.121094 326.453125 624.253906 329.449219 C 624.28125 329.902344 624.300781 330.375 624.351562 330.957031 C 624.5625 334.019531 624.800781 337.484375 622.53125 339.691406 L 622.253906 339.960938 L 621.871094 340.027344 C 618.984375 340.550781 600.097656 344.019531 595.445312 344.972656 L 583.695312 346.226562 C 571.03125 347.03125 559.132812 349.683594 549.277344 353.886719 C 540.871094 357.464844 521.753906 370.691406 507.414062 387.726562 C 502.464844 393.621094 496.375 400.210938 488.914062 408.226562 C 477.289062 420.738281 465.265625 433.679688 457.707031 444.53125 C 455.707031 447.375 453.480469 450.328125 450.988281 453.613281 C 441.996094 465.429688 431.804688 478.824219 430.691406 492.773438 C 430.367188 497.015625 430.824219 500.527344 431.347656 504.605469 L 431.476562 505.667969 C 433.335938 520.320312 449.914062 539.121094 467.726562 540.484375 C 468.578125 540.554688 469.695312 540.609375 470.878906 540.636719 C 472.128906 540.527344 473.769531 540.265625 475.738281 539.871094 L 475.988281 541.125 C 474.066406 541.511719 470.984375 541.917969 470.984375 541.917969 L 483.34375 542.035156 C 483.34375 542.035156 491.660156 540.269531 501.199219 537.734375 C 498.085938 538.878906 495.128906 539.917969 492.625 540.703125 C 499.863281 540.644531 508.53125 540.527344 518.855469 540.347656 L 525.921875 540.25 C 528.96875 540.207031 531.410156 540.171875 532.972656 540.171875 C 537.875 540.171875 542.808594 540.171875 547.71875 540.199219 C 552.769531 540.25 557.820312 540.25 562.875 540.25 L 563.964844 540.25 L 564.136719 541.328125 C 564.4375 543.195312 564.742188 545.019531 565.070312 546.757812 L 565.3125 546.800781 C 576.324219 548.800781 632.511719 559.421875 657.597656 572.34375 L 657.601562 572.339844 C 660.871094 570.667969 664.796875 568.957031 669.269531 567.25 L 669.660156 567.101562 L 712.089844 578.710938 L 685.894531 590.730469 C 685.046875 591.109375 684.40625 591.773438 684.089844 592.632812 C 683.761719 593.46875 683.789062 594.367188 684.15625 595.203125 L 684.527344 595.996094 C 685.058594 597.207031 686.273438 597.992188 687.621094 597.992188 C 688.136719 597.992188 688.609375 597.894531 689.03125 597.699219 L 723.574219 581.851562 L 791.15625 600.3125 L 791.261719 600.304688 L 805.476562 596.28125 L 806 596.742188 C 807.597656 598.15625 809.328125 598.878906 811.132812 598.878906 C 814.324219 598.878906 817.320312 596.625 819.148438 592.855469 L 819.402344 592.339844 L 823.628906 591.136719 L 824.164062 591.660156 C 825.691406 593.175781 827.488281 593.972656 829.339844 593.972656 C 832.464844 593.972656 835.417969 591.605469 837.054688 587.800781 L 837.296875 587.238281 L 841.890625 585.9375 L 842.386719 586.292969 C 843.628906 587.167969 844.898438 587.613281 846.167969 587.613281 C 848.578125 587.613281 850.910156 586.039062 852.558594 583.285156 L 852.816406 582.84375 L 857.738281 581.460938 L 858.25 581.863281 C 859.503906 582.851562 860.898438 583.375 862.285156 583.375 C 864.851562 583.375 867.253906 581.664062 868.875 578.683594 L 869.136719 578.203125 L 873.601562 576.960938 L 874.121094 577.402344 C 875.460938 578.539062 876.898438 579.113281 878.402344 579.113281 C 881.09375 579.113281 883.644531 577.238281 885.230469 574.09375 L 885.484375 573.59375 L 903.453125 568.492188 L 903.457031 555.75 L 901.890625 555.703125 " fill-opacity="1" fill-rule="nonzero"/></g><g clip-path="url(#id3)"><path fill="#100f0d" d="M 902.179688 559.394531 C 902.101562 559.394531 902.054688 559.34375 901.976562 559.371094 C 897.582031 560.570312 892.730469 561.921875 887.570312 563.324219 C 887.394531 562.511719 887.164062 561.71875 886.859375 560.976562 C 892.960938 559.421875 898.222656 558.066406 902.179688 557.046875 Z M 902.179688 563.632812 C 902.101562 563.632812 902.054688 563.609375 901.976562 563.609375 C 897.738281 564.78125 893.011719 566.085938 888.058594 567.4375 L 888.058594 567.207031 C 888.058594 566.316406 888.007812 565.421875 887.878906 564.578125 C 894.109375 562.867188 899.140625 561.488281 902.179688 560.648438 Z M 902.179688 567.515625 L 887.445312 571.703125 C 887.703125 570.757812 887.855469 569.8125 887.953125 568.792969 C 894.160156 567.082031 899.140625 565.726562 902.179688 564.886719 Z M 885.679688 558.632812 C 883.894531 555.84375 881.316406 554.058594 878.40625 554.058594 C 875.722656 554.058594 873.21875 555.542969 871.40625 558.144531 C 870.28125 558.269531 869.464844 558.707031 869.464844 559.238281 C 869.464844 559.753906 870.207031 560.1875 871.253906 560.339844 C 871.308594 560.390625 871.355469 560.441406 871.433594 560.492188 C 871.917969 560.800781 872.53125 560.695312 872.941406 560.339844 C 873.9375 560.160156 874.625 559.753906 874.625 559.238281 C 874.625 559.035156 874.472656 558.832031 874.242188 558.679688 C 875.441406 557.351562 876.898438 556.609375 878.40625 556.609375 C 880.21875 556.609375 881.824219 557.632812 883.078125 559.292969 C 883.078125 559.292969 883.078125 559.296875 883.082031 559.296875 C 878.691406 560.414062 874.132812 561.574219 869.488281 562.757812 C 867.699219 560.03125 865.148438 558.296875 862.289062 558.296875 C 859.609375 558.296875 857.105469 559.777344 855.292969 562.40625 C 854.167969 562.535156 853.351562 562.96875 853.351562 563.507812 C 853.351562 564.015625 854.09375 564.425781 855.140625 564.582031 C 855.191406 564.628906 855.238281 564.707031 855.316406 564.734375 C 855.804688 565.039062 856.417969 564.964844 856.824219 564.582031 C 857.820312 564.398438 858.511719 563.988281 858.511719 563.507812 C 858.511719 563.277344 858.355469 563.097656 858.125 562.921875 C 859.324219 561.589844 860.78125 560.851562 862.289062 560.851562 C 864.054688 560.851562 865.636719 561.847656 866.886719 563.429688 C 867.128906 563.746094 867.359375 564.078125 867.574219 564.4375 C 867.355469 564.078125 867.121094 563.738281 866.871094 563.421875 C 862.375 564.566406 857.824219 565.722656 853.296875 566.875 C 851.511719 564.21875 849.007812 562.535156 846.171875 562.535156 C 843.496094 562.535156 840.992188 564.042969 839.179688 566.644531 C 838.054688 566.777344 837.210938 567.210938 837.210938 567.746094 C 837.210938 568.257812 837.976562 568.664062 839.023438 568.816406 C 839.074219 568.871094 839.128906 568.945312 839.179688 568.96875 C 839.6875 569.273438 840.300781 569.199219 840.710938 568.816406 C 841.679688 568.664062 842.394531 568.230469 842.394531 567.746094 C 842.394531 567.515625 842.242188 567.335938 842.011719 567.15625 C 843.210938 565.828125 844.667969 565.089844 846.171875 565.089844 C 847.886719 565.089844 849.445312 566.035156 850.671875 567.539062 C 851.191406 568.1875 851.664062 568.910156 852.042969 569.75 C 851.660156 568.914062 851.183594 568.1875 850.660156 567.542969 C 845.917969 568.746094 841.234375 569.9375 836.695312 571.082031 C 834.804688 568.511719 832.226562 566.902344 829.34375 566.902344 C 826.511719 566.902344 823.855469 568.484375 821.910156 571.242188 C 820.636719 571.347656 819.664062 571.832031 819.664062 572.441406 C 819.664062 573.03125 820.558594 573.492188 821.757812 573.640625 C 821.785156 573.640625 821.8125 573.667969 821.835938 573.695312 C 822.292969 573.976562 822.859375 573.925781 823.265625 573.617188 C 824.414062 573.464844 825.257812 573.003906 825.257812 572.441406 C 825.257812 572.1875 825.054688 571.960938 824.75 571.757812 C 826.074219 570.300781 827.683594 569.457031 829.34375 569.457031 C 831.078125 569.457031 832.683594 570.347656 833.960938 571.773438 C 828.902344 573.054688 824.0625 574.273438 819.585938 575.402344 C 817.570312 572.082031 814.53125 569.964844 811.136719 569.964844 C 808.148438 569.964844 805.339844 571.625 803.269531 574.511719 C 801.839844 574.613281 800.742188 575.152344 800.742188 575.8125 C 800.742188 576.449219 801.8125 576.988281 803.195312 577.089844 C 803.605469 577.292969 804.035156 577.292969 804.394531 577.089844 C 805.746094 576.960938 806.769531 576.453125 806.769531 575.8125 C 806.769531 575.507812 806.488281 575.25 806.128906 575.019531 C 807.585938 573.414062 809.324219 572.515625 811.136719 572.515625 C 813.410156 572.515625 815.480469 573.871094 816.988281 576.042969 C 803.449219 579.464844 793.71875 581.863281 792.316406 582.121094 C 790.347656 581.761719 771.988281 577.394531 748.617188 571.753906 L 771.371094 561.335938 C 773.3125 560.441406 776.148438 555.769531 776.964844 554.363281 C 777.195312 554.007812 777.195312 553.574219 777.042969 553.191406 C 776.863281 552.808594 776.535156 552.550781 776.121094 552.472656 C 775.96875 552.421875 772.140625 551.65625 769.484375 551.65625 C 768.464844 551.65625 767.722656 551.785156 767.1875 552.015625 L 732.582031 567.898438 C 711.589844 562.816406 688.832031 557.300781 671.007812 552.960938 L 771.882812 537.84375 L 895.664062 556.074219 C 892.5 556.894531 889.128906 557.761719 885.679688 558.632812 Z M 885.453125 568.152344 C 881.085938 569.351562 876.566406 570.605469 871.917969 571.882812 C 871.917969 571.726562 871.941406 571.601562 871.941406 571.472656 C 871.941406 570.628906 871.867188 569.789062 871.765625 568.996094 C 876.640625 567.667969 881.238281 566.390625 885.378906 565.269531 C 885.453125 565.90625 885.503906 566.546875 885.503906 567.207031 C 885.503906 567.539062 885.453125 567.84375 885.453125 568.152344 Z M 884.535156 572.519531 L 873.347656 575.710938 C 873.246094 575.710938 873.167969 575.738281 873.09375 575.761719 L 871.25 576.296875 C 871.535156 575.328125 871.710938 574.28125 871.816406 573.234375 C 876.640625 571.90625 881.214844 570.65625 885.324219 569.503906 C 885.171875 570.605469 884.890625 571.601562 884.535156 572.519531 Z M 878.40625 577.832031 C 877.765625 577.832031 877.152344 577.703125 876.539062 577.449219 L 882.617188 575.710938 C 881.445312 577.039062 879.988281 577.832031 878.40625 577.832031 Z M 883.644531 560.136719 C 883.925781 560.582031 884.183594 561.054688 884.398438 561.578125 C 884.179688 561.058594 883.921875 560.585938 883.644531 560.136719 Z M 884.40625 561.589844 C 884.710938 562.332031 884.96875 563.148438 885.148438 563.988281 C 880.753906 565.214844 876.183594 566.46875 871.511719 567.746094 C 871.308594 566.796875 871.023438 565.933594 870.695312 565.089844 C 875.523438 563.859375 880.132812 562.683594 884.40625 561.589844 Z M 869.3125 572.59375 C 864.84375 573.820312 860.296875 575.046875 855.777344 576.296875 C 855.804688 576.09375 855.832031 575.914062 855.832031 575.710938 C 855.832031 574.921875 855.753906 574.15625 855.652344 573.414062 C 860.296875 572.132812 864.871094 570.882812 869.261719 569.683594 C 869.339844 570.273438 869.390625 570.855469 869.390625 571.472656 C 869.390625 571.855469 869.339844 572.210938 869.3125 572.59375 Z M 868.265625 577.140625 L 855.039062 580.894531 C 855.371094 579.875 855.574219 578.773438 855.679688 577.652344 C 860.273438 576.375 864.820312 575.152344 869.1875 573.949219 C 868.980469 575.097656 868.675781 576.171875 868.265625 577.140625 Z M 862.289062 582.09375 C 861.832031 582.09375 861.398438 581.996094 860.964844 581.863281 L 866.097656 580.410156 C 864.996094 581.457031 863.695312 582.09375 862.289062 582.09375 Z M 868.238281 565.714844 C 868.597656 566.554688 868.851562 567.46875 869.054688 568.410156 C 864.558594 569.636719 859.988281 570.914062 855.417969 572.136719 C 855.21875 571.117188 854.910156 570.117188 854.527344 569.199219 C 859.167969 568.019531 863.773438 566.851562 868.238281 565.714844 Z M 853.199219 576.988281 C 848.628906 578.242188 844.109375 579.492188 839.691406 580.691406 C 839.691406 579.71875 839.585938 578.75 839.433594 577.832031 C 843.980469 576.605469 848.578125 575.328125 853.175781 574.078125 C 853.226562 574.613281 853.273438 575.152344 853.273438 575.710938 C 853.273438 576.144531 853.222656 576.582031 853.199219 576.988281 Z M 851.996094 581.738281 L 841.65625 584.703125 C 841.554688 584.703125 841.453125 584.726562 841.375 584.777344 L 839.230469 585.390625 C 839.460938 584.320312 839.613281 583.167969 839.691406 582.019531 C 844.082031 580.820312 848.578125 579.597656 853.023438 578.371094 C 852.816406 579.59375 852.484375 580.742188 851.996094 581.738281 Z M 846.175781 586.332031 C 845.945312 586.332031 845.691406 586.308594 845.460938 586.257812 L 849.339844 585.160156 C 848.398438 585.875 847.324219 586.332031 846.175781 586.332031 Z M 838.03125 573.386719 C 837.78125 572.84375 837.46875 572.386719 837.171875 571.90625 C 837.472656 572.386719 837.785156 572.847656 838.039062 573.378906 C 842.648438 572.210938 847.367188 571.015625 852.078125 569.816406 C 852.484375 570.734375 852.765625 571.753906 852.96875 572.820312 C 848.296875 574.097656 843.671875 575.351562 839.179688 576.578125 C 838.898438 575.453125 838.515625 574.359375 838.03125 573.386719 Z M 837.136719 581.382812 C 831.875 582.8125 826.816406 584.191406 822.121094 585.46875 C 822.144531 585.335938 822.144531 585.183594 822.144531 585.058594 C 822.144531 584.214844 822.09375 583.398438 821.992188 582.582031 C 826.71875 581.304688 831.746094 579.925781 836.957031 578.523438 C 837.085938 579.335938 837.164062 580.183594 837.164062 581.074219 C 837.164062 581.179688 837.136719 581.277344 837.136719 581.382812 Z M 820.769531 577.734375 C 825.390625 576.578125 830.363281 575.320312 835.5 574.019531 C 835.5 574.023438 835.503906 574.023438 835.503906 574.023438 C 836.011719 575 836.417969 576.066406 836.703125 577.265625 C 831.464844 578.675781 826.460938 580.054688 821.789062 581.304688 C 821.558594 580.054688 821.203125 578.855469 820.769531 577.734375 Z M 836.320312 586.207031 L 821.402344 590.421875 C 821.738281 589.269531 821.96875 588.070312 822.066406 586.792969 C 826.792969 585.515625 831.851562 584.136719 837.03125 582.734375 C 836.933594 583.960938 836.675781 585.132812 836.320312 586.207031 Z M 829.347656 592.695312 C 828.300781 592.695312 827.253906 592.335938 826.285156 591.695312 L 834.890625 589.269531 C 833.460938 591.390625 831.515625 592.695312 829.347656 592.695312 Z M 819.515625 586.179688 C 804.164062 590.34375 793.132812 593.28125 792.34375 593.382812 C 791.117188 593.230469 764.582031 586.4375 733.886719 578.523438 L 737.972656 576.632812 C 766.089844 583.886719 791.523438 590.394531 792.316406 590.394531 C 792.878906 590.394531 804.191406 587.410156 819.464844 583.273438 C 819.515625 583.859375 819.589844 584.445312 819.589844 585.058594 C 819.589844 585.441406 819.542969 585.796875 819.515625 586.179688 Z M 818.441406 591.289062 L 791.269531 598.976562 L 727.324219 581.535156 L 732.050781 579.363281 C 762.414062 587.203125 791.476562 594.660156 792.316406 594.660156 C 792.882812 594.660156 804.195312 591.648438 819.410156 587.511719 C 819.234375 588.863281 818.878906 590.113281 818.441406 591.289062 Z M 811.136719 597.59375 C 810.167969 597.59375 809.199219 597.316406 808.277344 596.800781 L 816.703125 594.429688 C 815.226562 596.367188 813.285156 597.59375 811.136719 597.59375 Z M 744.867188 573.492188 C 770.355469 579.617188 791.550781 584.671875 792.316406 584.671875 C 792.902344 584.671875 803.578125 582.042969 818.265625 578.367188 C 818.722656 579.464844 819.082031 580.691406 819.3125 581.992188 C 804.066406 586.128906 793.132812 589.039062 792.34375 589.117188 C 791.21875 589.015625 767.929688 583.039062 739.8125 575.789062 Z M 688.527344 596.523438 C 687.460938 596.980469 686.15625 596.472656 685.695312 595.449219 L 685.339844 594.683594 C 685.109375 594.171875 685.082031 593.585938 685.285156 593.074219 C 685.492188 592.539062 685.898438 592.105469 686.4375 591.875 L 768.234375 554.335938 C 768.257812 554.335938 768.542969 554.210938 769.484375 554.210938 C 770.816406 554.210938 772.523438 554.441406 773.800781 554.644531 C 772.476562 556.742188 770.96875 558.707031 770.328125 559.011719 Z M 664.679688 564.425781 L 664.679688 561.882812 C 670.703125 563.453125 692.484375 569.117188 716.40625 575.308594 L 712 577.34375 Z M 664.464844 557.582031 C 664.378906 557.566406 664.285156 557.542969 664.21875 557.53125 C 664.148438 557.507812 664.117188 557.441406 664.058594 557.402344 C 664.117188 557.4375 664.148438 557.503906 664.214844 557.519531 C 664.289062 557.539062 664.378906 557.566406 664.464844 557.582031 Z M 663.757812 556.742188 C 663.835938 556.40625 664.195312 556.203125 664.523438 556.28125 C 664.535156 556.285156 664.542969 556.285156 664.550781 556.289062 C 664.542969 556.289062 664.542969 556.285156 664.535156 556.285156 C 664.195312 556.210938 663.851562 556.398438 663.757812 556.742188 Z M 664.324219 561.792969 C 664.289062 561.785156 664.25 561.773438 664.21875 561.769531 C 664.175781 561.753906 664.152344 561.710938 664.117188 561.6875 C 664.15625 561.707031 664.175781 561.753906 664.21875 561.765625 C 664.246094 561.773438 664.285156 561.785156 664.324219 561.792969 Z M 663.757812 560.980469 C 663.757812 560.976562 663.753906 560.976562 663.757812 560.976562 C 663.835938 560.648438 664.195312 560.441406 664.523438 560.519531 C 664.558594 560.53125 664.589844 560.539062 664.625 560.550781 C 664.59375 560.542969 664.566406 560.535156 664.535156 560.527344 C 664.195312 560.445312 663.851562 560.648438 663.757812 560.980469 Z M 722.316406 572.59375 L 718.257812 574.460938 L 718.242188 574.464844 C 699.011719 569.488281 679.546875 564.4375 664.675781 560.566406 L 664.675781 557.640625 C 671.199219 559.335938 696.160156 565.828125 722.316406 572.59375 Z M 664.679688 556.320312 L 664.679688 554.035156 C 677.957031 557.277344 703.828125 563.554688 728.828125 569.609375 L 724.160156 571.753906 C 703.054688 566.292969 681.078125 560.589844 664.679688 556.320312 Z M 659.421875 570.019531 C 659.410156 525.945312 659.152344 481.867188 658.890625 437.796875 C 684.320312 425.21875 750.667969 420.445312 761.277344 419.757812 C 760.984375 424.675781 759.933594 441.644531 758.292969 462.382812 C 757.203125 461.820312 756.105469 461.265625 755.007812 460.699219 C 750.15625 458.222656 745.558594 455.847656 741.523438 454.136719 C 739.402344 453.269531 736.3125 452.199219 734.144531 453.195312 C 733.195312 453.628906 732.507812 454.417969 732.175781 455.441406 C 731.714844 456.921875 731.996094 458.328125 732.582031 459.578125 C 730.160156 458.886719 727.628906 459.835938 726.097656 462.234375 C 725.484375 463.585938 725.203125 465.421875 726.226562 467.492188 C 725.433594 467.464844 724.695312 467.644531 724.03125 468.03125 C 722.851562 468.71875 722.191406 469.941406 722.21875 471.398438 C 722.292969 474.589844 724.796875 476.789062 726.8125 478.546875 C 727.246094 478.929688 727.679688 479.292969 728.089844 479.699219 C 728.828125 480.335938 729.570312 480.925781 730.285156 481.511719 C 730.234375 481.539062 730.160156 481.539062 730.082031 481.5625 C 728.421875 482.046875 727.066406 483.324219 726.457031 484.957031 C 725.355469 488.023438 729.46875 491.136719 729.824219 491.367188 C 738.941406 499.691406 752.300781 504.851562 752.757812 505.027344 C 752.835938 505.082031 753.472656 505.363281 754.34375 505.769531 C 753.117188 517.566406 751.710938 528.90625 750.230469 538.503906 L 664.242188 551.398438 L 663.402344 551.378906 C 663.066406 551.378906 662.738281 551.503906 662.507812 551.761719 C 662.25 551.992188 662.125 552.320312 662.125 552.652344 L 662.125 565.394531 C 662.125 565.957031 662.507812 566.46875 663.066406 566.621094 L 665.597656 567.308594 C 663.402344 568.207031 661.359375 569.097656 659.421875 570.019531 Z M 656.867188 571.394531 L 656.867188 570.550781 C 630.609375 557.632812 573.914062 547.0625 566.179688 545.65625 C 564.160156 534.472656 562.324219 519.867188 560.742188 504.566406 C 564.339844 503.0625 574.863281 498.3125 582.394531 491.46875 C 582.855469 491.136719 586.96875 488.023438 585.839844 484.957031 C 585.253906 483.324219 583.902344 482.046875 582.214844 481.558594 C 582.164062 481.539062 582.089844 481.539062 582.011719 481.511719 C 582.75 480.894531 583.492188 480.3125 584.257812 479.648438 C 584.640625 479.289062 585.050781 478.929688 585.484375 478.546875 C 587.5 476.789062 590.03125 474.589844 590.082031 471.398438 C 590.136719 469.941406 589.46875 468.71875 588.292969 468.027344 C 587.632812 467.617188 586.863281 467.464844 586.070312 467.464844 C 587.09375 465.371094 586.789062 463.53125 586.125 462.078125 C 584.667969 459.804688 582.164062 458.859375 579.714844 459.574219 C 580.304688 458.328125 580.609375 456.917969 580.121094 455.441406 C 579.789062 454.417969 579.125 453.625 578.183594 453.195312 C 575.988281 452.195312 572.917969 453.269531 570.800781 454.136719 C 566.765625 455.847656 562.171875 458.222656 557.292969 460.699219 C 557.136719 460.804688 556.960938 460.878906 556.808594 460.957031 C 556.808594 460.957031 556.804688 460.957031 556.804688 460.960938 C 555.230469 440.875 554.226562 424.5625 553.9375 419.757812 C 564.546875 420.449219 630.914062 425.222656 656.335938 437.804688 C 656.601562 482.046875 656.863281 526.292969 656.867188 570.546875 C 656.867188 570.832031 656.867188 571.121094 656.867188 571.40625 C 656.867188 572.433594 657.863281 572.816406 658.609375 572.566406 C 657.859375 572.824219 656.867188 572.433594 656.867188 571.394531 Z M 554.324219 462.234375 C 554.3125 461.847656 554.28125 461.492188 554.253906 461.128906 C 554.285156 461.496094 554.3125 461.859375 554.339844 462.226562 C 554.550781 462.117188 554.757812 462.015625 554.960938 461.90625 C 554.75 462.019531 554.546875 462.121094 554.324219 462.234375 Z M 552.648438 417.121094 L 551.21875 417.039062 L 551.300781 418.46875 C 551.308594 418.65625 551.546875 422.761719 551.984375 429.503906 C 551.546875 422.765625 551.300781 418.65625 551.292969 418.464844 L 551.214844 417.035156 L 552.644531 417.113281 C 555.246094 417.261719 605.621094 420.238281 638.96875 429.023438 C 605.613281 420.25 555.238281 417.265625 552.648438 417.121094 Z M 547.28125 418.492188 C 546.871094 417.851562 546.363281 417.0625 545.699219 416.015625 C 544.726562 416.699219 543.753906 417.390625 542.507812 418.285156 C 541.84375 417.035156 541.355469 416.089844 540.488281 414.429688 C 543.734375 413.128906 546.515625 411.976562 549.578125 410.726562 C 550.371094 412.335938 550.957031 413.484375 551.773438 415.171875 C 550.242188 416.320312 549.195312 417.085938 547.28125 418.492188 Z M 570.625 358.660156 C 572.820312 361.417969 571.132812 362.335938 570.546875 363.535156 C 570.058594 363.304688 569.578125 363.101562 569.089844 362.902344 C 569.523438 361.699219 569.960938 360.5 570.625 358.660156 Z M 584.871094 384.5 C 583.210938 384.222656 582.089844 384.039062 580.964844 383.863281 C 582.828125 380.722656 583.875 381.285156 584.871094 384.5 Z M 595.75 397.167969 C 595.957031 399.363281 596.085938 400.820312 596.238281 402.277344 C 592.304688 400.867188 593.121094 399.417969 595.75 397.167969 Z M 607.960938 381.386719 C 608.726562 382.894531 609.261719 383.964844 609.824219 385.039062 C 609.160156 385.398438 608.804688 385.804688 608.574219 385.726562 C 606.453125 384.960938 606.09375 383.710938 607.960938 381.386719 Z M 613.730469 391.675781 C 614.1875 391.78125 614.648438 391.882812 615.109375 391.984375 C 615.570312 393.160156 616.003906 394.332031 616.664062 396.097656 C 614.878906 396.144531 613.601562 396.171875 611.175781 396.222656 C 612.328125 394.179688 613.039062 392.929688 613.730469 391.675781 Z M 637.890625 391.957031 C 637.097656 388.769531 637.070312 386.90625 639.753906 385.601562 C 640.621094 388.257812 639.265625 389.609375 637.890625 391.957031 Z M 622.464844 341.21875 C 622.667969 341.167969 622.871094 341.066406 623.050781 340.9375 C 626.167969 338.308594 625.863281 334.148438 625.632812 330.777344 C 625.582031 330.242188 625.554688 329.703125 625.527344 329.195312 C 625.402344 326.410156 625.375 324.390625 625.351562 322.171875 C 625.324219 321.585938 625.324219 320.972656 625.296875 320.359375 C 628.597656 322.632812 632.195312 324.570312 636 326.078125 C 641.824219 328.8125 648.410156 330.136719 655.152344 330.164062 C 655.871094 330.191406 656.558594 330.214844 657.246094 330.214844 C 664.574219 330.214844 671.753906 328.734375 677.957031 325.566406 C 681.148438 324.214844 684.191406 322.554688 687 320.636719 C 687 321.148438 686.972656 321.660156 686.972656 322.171875 C 686.945312 324.390625 686.894531 326.410156 686.792969 329.195312 C 686.769531 329.703125 686.714844 330.238281 686.695312 330.800781 C 686.4375 334.144531 686.15625 338.308594 689.246094 340.9375 C 689.425781 341.066406 689.628906 341.167969 689.859375 341.21875 C 689.910156 341.21875 691.675781 341.550781 694.226562 342.011719 C 686.515625 355.367188 676.199219 368.1875 665.523438 379.140625 C 663.070312 381.617188 660.46875 384.09375 657.402344 385.804688 C 652.113281 388.742188 645.78125 380.722656 642.335938 377.480469 C 631.429688 367.34375 622.441406 354.625 613.324219 342.90625 C 618.304688 341.984375 622.363281 341.21875 622.464844 341.21875 Z M 671.726562 226.265625 C 670.613281 226.492188 669.480469 226.683594 668.335938 226.824219 C 669.476562 226.683594 670.605469 226.488281 671.726562 226.265625 Z M 617.792969 309.9375 C 613.144531 304.039062 609.644531 296.402344 607.675781 287.851562 C 607.425781 286.675781 607.167969 285.550781 606.9375 284.429688 C 607.960938 284.199219 608.214844 282.410156 606.964844 281.902344 C 606.761719 281.824219 606.609375 281.722656 606.398438 281.621094 C 602.773438 280.035156 600.039062 277.230469 598.050781 273.78125 C 596.851562 271.6875 596.316406 269.3125 596.238281 266.914062 C 596.085938 262.828125 599.582031 259.277344 602.875 263.464844 C 603.210938 263.875 603.59375 263.949219 603.949219 263.847656 C 604.691406 263.671875 605.277344 262.675781 604.765625 261.832031 C 606.246094 261.523438 607.5 260.910156 608.519531 259.941406 C 611.941406 256.648438 611.914062 250.160156 611.914062 244.4375 C 611.914062 240.839844 611.914062 237.417969 612.734375 235.425781 C 614.648438 230.726562 619.65625 229.273438 623.714844 229.476562 C 631.707031 229.832031 640.773438 227.96875 649.914062 224.242188 C 650.9375 223.832031 651.957031 223.347656 652.980469 222.886719 C 653.210938 222.789062 653.441406 222.683594 653.695312 222.582031 C 657.625 220.746094 661.535156 218.597656 665.367188 216.09375 C 665.953125 215.710938 666.132812 214.921875 665.75 214.335938 C 665.339844 213.746094 664.550781 213.59375 663.964844 213.976562 C 650.503906 222.761719 635.921875 227.484375 623.84375 226.925781 C 617.5625 226.617188 612.402344 229.503906 610.359375 234.457031 C 609.363281 236.90625 609.363281 240.558594 609.363281 244.4375 C 609.363281 249.648438 609.390625 255.574219 606.734375 258.101562 C 605.839844 258.96875 604.613281 259.402344 603.078125 259.453125 C 601.828125 246.203125 601.777344 231.621094 606.246094 217.78125 C 607.546875 213.492188 610.179688 208.28125 613.449219 203.53125 C 617.609375 197.507812 626.320312 192.449219 632.757812 190.609375 C 639.675781 188.644531 647.132812 188.671875 654.410156 188.699219 L 654.820312 188.699219 C 662.019531 188.75 669.480469 188.773438 676.582031 190.101562 C 690.800781 192.757812 701.734375 202.84375 706.558594 217.808594 C 711.003906 231.492188 710.976562 245.921875 709.753906 259.070312 C 709.316406 259.222656 708.910156 259.429688 708.476562 259.683594 C 708.269531 259.558594 708.015625 259.453125 707.710938 259.480469 C 705.917969 259.585938 704.183594 258.917969 703.242188 257.871094 C 701.09375 255.449219 700.660156 251.183594 700.507812 247.351562 C 700.457031 246.078125 700.480469 244.800781 700.507812 243.496094 C 700.507812 242.679688 700.535156 241.835938 700.535156 241.019531 C 700.535156 239.871094 700.480469 238.746094 700.378906 237.625 C 700.355469 237.34375 700.355469 237.011719 700.355469 236.652344 C 700.328125 235.554688 700.328125 234.304688 699.867188 233.355469 C 697.542969 228.585938 691.59375 226.695312 686.769531 226.925781 C 682.738281 227.101562 678.511719 226.71875 674.023438 225.78125 C 676.558594 225.183594 679.011719 224.464844 681.230469 223.628906 L 681.636719 223.476562 C 686.816406 221.566406 692.683594 219.394531 697.59375 216.242188 C 698.183594 215.859375 698.355469 215.074219 697.972656 214.480469 C 697.59375 213.882812 696.796875 213.710938 696.210938 214.09375 C 695.253906 214.703125 694.238281 215.253906 693.214844 215.800781 C 689.207031 217.925781 684.777344 219.59375 680.75 221.082031 L 680.335938 221.238281 C 672.5 224.203125 661.003906 226.234375 652.988281 222.890625 C 651.964844 223.355469 650.941406 223.828125 649.917969 224.242188 C 653.65625 226.355469 658.183594 227.203125 662.878906 227.203125 C 664.53125 227.203125 666.203125 227.089844 667.867188 226.898438 L 667.871094 226.898438 C 668.148438 226.976562 668.457031 227.054688 668.808594 227.128906 C 675.167969 228.941406 681.25 229.734375 686.867188 229.480469 C 690.796875 229.300781 695.753906 230.785156 697.566406 234.484375 C 697.769531 234.890625 697.796875 235.992188 697.796875 236.707031 C 697.796875 237.117188 697.796875 237.5 697.847656 237.828125 C 697.925781 238.875 697.972656 239.949219 697.972656 241.023438 C 697.972656 241.839844 697.949219 242.65625 697.949219 243.449219 C 697.921875 244.800781 697.898438 246.128906 697.949219 247.457031 C 698.128906 251.949219 698.664062 256.546875 701.320312 259.558594 C 702.652344 261.066406 704.5625 261.730469 706.328125 261.960938 C 706.097656 262.699219 706.632812 263.46875 707.269531 263.648438 C 707.652344 263.746094 708.0625 263.671875 708.371094 263.265625 C 711.355469 259.585938 714.421875 261.988281 714.933594 265.738281 C 715.238281 268.117188 714.5 270.515625 713.554688 272.660156 C 711.84375 276.542969 708.445312 279.757812 704.5625 281.394531 C 704.386719 281.46875 704.179688 281.570312 704.003906 281.648438 C 702.472656 282.210938 703.132812 284.6875 704.667969 284.101562 C 705.152344 283.921875 705.585938 283.691406 706.046875 283.488281 C 705.761719 284.890625 705.457031 286.296875 705.125 287.726562 C 703.160156 296.328125 699.660156 303.992188 695.015625 309.863281 C 692.96875 312.445312 690.570312 314.769531 687.9375 316.808594 C 687.65625 316.914062 687.429688 317.089844 687.273438 317.347656 C 684.414062 319.488281 681.273438 321.328125 677.953125 322.808594 C 677.777344 322.835938 677.59375 322.886719 677.417969 322.964844 C 677.058594 323.171875 676.730469 323.347656 676.367188 323.5 C 669.628906 326.28125 662.222656 327.714844 655.097656 327.664062 C 649.171875 327.433594 643.195312 326.183594 637.628906 324.035156 C 636.863281 323.703125 636.121094 323.324219 635.40625 322.941406 C 635.179688 322.808594 634.949219 322.761719 634.691406 322.785156 C 628.058594 319.769531 622.160156 315.429688 617.792969 309.9375 Z M 693.027344 403.78125 C 693.332031 401.484375 693.484375 400.4375 693.714844 398.671875 C 695.296875 399.464844 696.421875 400.050781 698.589844 401.152344 C 696.394531 402.171875 695.25 402.734375 693.027344 403.78125 Z M 701.835938 421.757812 C 699.484375 421.324219 698.261719 421.09375 696.601562 420.785156 C 699.539062 417.902344 699.539062 417.902344 701.835938 421.757812 Z M 706.484375 358.890625 C 706.609375 358.632812 707.351562 358.738281 708.476562 358.558594 C 707.839844 359.679688 707.503906 360.292969 707.148438 360.882812 C 706.890625 360.808594 706.636719 360.703125 706.378906 360.625 C 706.410156 360.039062 706.253906 359.378906 706.484375 358.890625 Z M 711.261719 371.300781 C 712.050781 373.367188 712.40625 374.3125 712.867188 375.515625 C 710.082031 374.875 710.082031 374.875 711.261719 371.300781 Z M 720.710938 363.871094 C 718.078125 363.792969 715.167969 364.378906 713.507812 360.5 C 716.980469 359.859375 718.84375 361.980469 720.710938 363.871094 Z M 692.59375 408.890625 C 691.902344 409.78125 691.492188 410.320312 690.625 411.492188 C 690.140625 409.960938 689.832031 409.042969 689.296875 407.355469 C 690.78125 408.042969 691.546875 408.402344 692.59375 408.890625 Z M 692.539062 384.960938 C 690.523438 383.175781 689.09375 381.925781 686.972656 380.085938 C 689.679688 379.703125 691.394531 379.472656 693.640625 379.136719 C 693.28125 380.976562 693.027344 382.40625 692.539062 384.960938 Z M 762.566406 417.109375 L 763.898438 417.039062 L 762.5625 417.117188 C 759.9375 417.265625 708.570312 420.308594 675.234375 429.289062 C 708.570312 420.300781 759.9375 417.257812 762.566406 417.109375 Z M 763.917969 418.464844 C 763.898438 418.761719 763.3125 428.792969 762.269531 443.492188 C 763.3125 428.796875 763.894531 418.757812 763.910156 418.464844 L 763.992188 417.035156 L 763.996094 417.035156 Z M 775.179688 380.085938 C 776.839844 382.972656 777.992188 385.015625 779.394531 387.464844 C 776.074219 388.335938 774.644531 385.777344 771.171875 384.425781 C 772.882812 382.5625 773.828125 381.542969 775.179688 380.085938 Z M 776.429688 404.648438 C 777.273438 405.519531 777.835938 405.953125 778.222656 406.539062 C 778.703125 407.304688 779.039062 408.171875 779.574219 409.347656 C 777.226562 407.996094 777.226562 407.996094 776.429688 404.648438 Z M 782.636719 443.820312 C 786.085938 446.324219 786.085938 446.324219 782.484375 449.03125 C 780.492188 447.140625 781.792969 445.53125 782.636719 443.820312 Z M 788.488281 379.675781 C 789.351562 380.746094 789.96875 381.542969 791.117188 382.996094 C 789.148438 383.097656 788 383.148438 786.851562 383.226562 C 786.722656 382.839844 786.570312 382.433594 786.445312 382.050781 C 787.03125 381.363281 787.617188 380.671875 788.488281 379.675781 Z M 793.976562 437.132812 C 794.742188 436.773438 795.867188 437.285156 798.140625 437.589844 C 795.253906 439.660156 795.023438 442.953125 791.472656 443.027344 C 790.886719 439.886719 791.855469 438.027344 793.976562 437.132812 Z M 802.6875 456.5625 C 801.84375 459.039062 800.257812 458.859375 797.707031 457.636719 C 799.390625 456.515625 800.539062 455.769531 801.816406 454.902344 C 802.253906 455.671875 802.8125 456.257812 802.6875 456.5625 Z M 787.519531 418.3125 C 787.386719 417.953125 787.289062 417.570312 787.183594 417.214844 C 788.15625 416.804688 789.125 416.394531 790.09375 415.988281 C 790.273438 416.496094 790.476562 417.007812 790.65625 417.542969 C 789.609375 417.800781 788.5625 418.054688 787.519531 418.3125 Z M 760.753906 463.636719 C 760.367188 463.445312 759.980469 463.238281 759.59375 463.042969 C 759.980469 463.238281 760.367188 463.4375 760.757812 463.628906 C 760.753906 463.632812 760.753906 463.632812 760.753906 463.636719 Z M 762.003906 535.136719 C 762.359375 535.316406 762.742188 535.492188 763.125 535.644531 C 763 535.980469 762.875 536.308594 762.742188 536.644531 L 761.390625 536.847656 C 761.597656 536.285156 761.800781 535.722656 762.003906 535.136719 Z M 550.601562 524.71875 C 549.324219 521.5 549.785156 520.042969 552.359375 519.226562 C 552.847656 519.917969 553.382812 520.65625 554.046875 521.601562 C 552.953125 522.597656 552.054688 523.414062 550.601562 524.71875 Z M 547.867188 510.214844 C 547.636719 509.703125 547.457031 509.242188 547.382812 508.78125 C 548.226562 508.683594 549.09375 508.578125 550.039062 508.480469 C 549.808594 509.269531 549.632812 510.007812 549.453125 510.726562 C 548.914062 510.546875 548.378906 510.367188 547.867188 510.214844 Z M 535.101562 403.574219 C 535.253906 403.140625 535.40625 402.710938 535.558594 402.277344 C 536.328125 402.582031 537.066406 402.910156 537.855469 403.21875 C 536.53125 406.054688 535.867188 404.523438 535.101562 403.574219 Z M 522.738281 440.503906 C 523.222656 440.273438 523.734375 440.042969 524.246094 439.8125 C 524.988281 441.546875 525.753906 443.3125 526.496094 445.046875 C 523.558594 444.484375 521.871094 443.257812 522.738281 440.503906 Z M 485.148438 419.96875 C 486.605469 420.199219 487.597656 420.355469 489.488281 420.660156 C 487.269531 422.753906 486.195312 423.339844 485.148438 419.96875 Z M 470.71875 530.335938 C 468.523438 529.542969 466.660156 528.699219 466.375 525.816406 C 470.308594 526.199219 470.308594 526.199219 470.71875 530.335938 Z M 485.25 500.710938 C 486.527344 502.015625 487.292969 502.78125 488.054688 503.546875 C 487.851562 503.933594 487.625 504.316406 487.394531 504.699219 C 486.605469 504.621094 485.785156 504.546875 484.609375 504.441406 C 484.8125 503.269531 484.945312 502.425781 485.25 500.710938 Z M 440.585938 522.648438 C 439.742188 521.578125 438.925781 520.453125 438.207031 519.332031 C 438.488281 519.378906 438.796875 519.484375 439.128906 519.636719 C 440.355469 520.246094 440.992188 521.117188 440.585938 522.648438 Z M 810.859375 414.789062 C 810.628906 416.652344 810.421875 418.054688 810.246094 419.460938 C 809.8125 419.511719 809.375 419.585938 808.941406 419.636719 C 808.226562 418.464844 807.511719 417.265625 806.386719 415.402344 C 808.203125 415.144531 809.277344 414.992188 810.859375 414.789062 Z M 809.503906 454.367188 C 809.199219 453.398438 808.890625 452.429688 808.558594 451.429688 C 808.890625 451.277344 809.199219 451.125 809.503906 450.972656 C 810.039062 451.917969 810.550781 452.835938 811.164062 453.90625 C 810.398438 454.109375 810.09375 454.214844 809.503906 454.367188 Z M 816.117188 421.144531 C 817.574219 422.878906 818.800781 424.289062 820.003906 425.71875 C 819.746094 426.023438 819.515625 426.304688 819.257812 426.609375 C 817.574219 425.792969 815.890625 424.976562 813.796875 423.953125 C 814.636719 422.933594 815.175781 422.269531 816.117188 421.144531 Z M 818.621094 444.792969 C 819.335938 443.257812 819.773438 442.289062 820.691406 440.273438 C 822.554688 444.152344 821.53125 444.765625 818.621094 444.792969 Z M 825.824219 427.683594 C 827.636719 429.265625 828.914062 430.824219 827.582031 433.988281 C 823.832031 431.308594 823.832031 431.308594 825.824219 427.683594 Z M 847.632812 439.300781 C 847.988281 439.300781 848.371094 439.300781 848.726562 439.324219 C 848.726562 440.398438 848.753906 441.472656 848.753906 442.546875 L 847.632812 442.546875 Z M 825.875 526.300781 C 826.179688 525.867188 826.488281 525.457031 826.792969 525.050781 C 827.6875 525.867188 828.554688 526.683594 829.960938 527.960938 C 827.074219 529.160156 826.207031 528.214844 825.875 526.300781 Z M 816.296875 513.40625 C 815.886719 511.183594 815.632812 509.832031 815.121094 507.023438 C 817.550781 508.605469 818.59375 509.269531 820.308594 510.367188 C 818.902344 511.4375 817.933594 512.175781 816.296875 513.40625 Z M 903.484375 554.46875 L 902.078125 554.441406 L 817.269531 541.953125 C 820.691406 541.976562 824.011719 542.003906 827.125 542.03125 C 813.816406 538.582031 794.5625 531.996094 787.488281 523.59375 C 786.800781 523.109375 786.136719 522.519531 785.550781 521.882812 C 782.40625 518.585938 780.773438 513.683594 781.285156 509.085938 C 781.359375 508.375 781.972656 507.886719 782.714844 507.964844 C 783.402344 508.042969 783.914062 508.679688 783.835938 509.371094 C 783.402344 513.226562 784.757812 517.363281 787.386719 520.121094 C 789.457031 522.316406 792.085938 523.414062 794.847656 523.261719 C 797.574219 523.003906 799.824219 521.753906 801.738281 519.917969 C 795.714844 518.285156 790.347656 512.023438 786.597656 507.453125 C 786.542969 507.40625 786.492188 507.378906 786.445312 507.328125 C 786.445312 507.328125 786.417969 507.300781 786.390625 507.300781 C 786.160156 507.097656 785.90625 506.996094 785.648438 507.023438 L 784.804688 506.839844 C 784.707031 506.820312 784.601562 506.820312 784.476562 506.820312 C 775.613281 507.175781 771.632812 507.097656 762.460938 505.921875 C 761.542969 505.746094 760.417969 505.410156 759.269531 505.003906 C 757.40625 504.339844 755.566406 503.523438 754.574219 503.0625 C 754.113281 502.859375 753.804688 502.707031 753.777344 502.707031 C 753.625 502.628906 740.292969 497.46875 731.433594 489.398438 C 730.179688 488.484375 728.546875 486.695312 728.855469 485.828125 C 729.105469 485.164062 729.746094 484.320312 730.792969 484.015625 C 732.046875 483.65625 733.554688 484.140625 735.1875 485.367188 C 741.929688 490.375 748.007812 493.617188 753.625 495.25 C 753.75 495.277344 753.855469 495.328125 753.980469 495.351562 C 754.113281 495.375 754.210938 495.402344 754.339844 495.402344 C 754.875 495.402344 755.410156 495.046875 755.5625 494.457031 C 755.746094 493.792969 755.359375 493.078125 754.671875 492.898438 C 754.316406 492.796875 753.957031 492.640625 753.574219 492.542969 C 746.679688 490.347656 738.6875 485.417969 729.796875 477.808594 C 729.414062 477.425781 728.957031 477.039062 728.496094 476.636719 C 726.683594 475.050781 724.816406 473.414062 724.765625 471.347656 C 724.765625 470.992188 724.84375 470.503906 725.328125 470.226562 C 725.765625 469.96875 726.582031 469.890625 727.523438 470.457031 C 728.421875 470.964844 729.257812 471.601562 730.257812 472.320312 C 731.558594 473.289062 733.195312 474.464844 735.570312 475.894531 C 741.164062 479.621094 747.523438 482.738281 753.113281 485.417969 C 753.597656 485.625 754.085938 485.875 754.542969 486.082031 C 754.722656 486.15625 754.902344 486.210938 755.082031 486.210938 C 755.5625 486.210938 756.023438 485.929688 756.253906 485.492188 C 756.539062 484.855469 756.28125 484.089844 755.640625 483.78125 C 754.746094 483.347656 753.828125 482.914062 752.882812 482.457031 C 745.605469 478.984375 737.277344 474.742188 731.328125 469.457031 C 727.117188 466.1875 728.113281 463.992188 728.34375 463.457031 C 729.3125 461.925781 731.050781 461.464844 732.632812 462.308594 C 734.828125 463.457031 736.972656 464.757812 739.09375 466.058594 C 741.058594 467.488281 743.101562 468.765625 745.199219 469.941406 L 745.324219 470.015625 C 745.375 470.042969 745.402344 470.042969 745.449219 470.070312 C 747.621094 471.269531 749.792969 472.34375 751.914062 473.335938 C 752.578125 473.640625 753.242188 473.976562 753.878906 474.28125 C 754.46875 474.539062 755.101562 474.820312 755.714844 475.097656 C 757.144531 475.714844 758.628906 476.351562 759.90625 477.117188 C 760.109375 477.21875 760.339844 477.296875 760.570312 477.296875 C 761.003906 477.296875 761.414062 477.066406 761.667969 476.65625 C 762.027344 476.046875 761.824219 475.28125 761.210938 474.921875 C 759.78125 474.082031 758.246094 473.414062 756.742188 472.75 C 756.128906 472.496094 755.542969 472.214844 754.949219 471.960938 C 754.007812 471.523438 753.011719 471.039062 752.039062 470.582031 C 750.199219 469.6875 748.363281 468.765625 746.523438 467.746094 L 745.429688 467.058594 C 743.84375 466.035156 742.207031 464.988281 740.574219 463.96875 C 739.425781 463.152344 738.304688 462.332031 737.277344 461.414062 C 736.488281 460.726562 733.9375 458.296875 734.597656 456.230469 C 734.753906 455.769531 735.003906 455.59375 735.214844 455.515625 C 735.847656 455.210938 737.28125 455.132812 740.523438 456.511719 C 744.484375 458.171875 749.027344 460.496094 753.828125 462.972656 C 754.546875 463.328125 755.234375 463.683594 755.925781 464.042969 C 757.835938 465.039062 759.78125 466.011719 761.671875 466.925781 C 764.628906 468.382812 767.492188 469.714844 770.097656 470.707031 C 770.171875 470.734375 770.222656 470.734375 770.300781 470.734375 C 770.375 470.761719 770.480469 470.785156 770.558594 470.785156 C 770.632812 470.785156 770.683594 470.761719 770.761719 470.761719 C 770.863281 470.734375 770.941406 470.734375 771.042969 470.683594 C 771.09375 470.65625 771.144531 470.628906 771.195312 470.605469 C 771.273438 470.550781 771.371094 470.503906 771.449219 470.425781 C 771.5 470.375 771.527344 470.300781 771.574219 470.246094 C 771.628906 470.167969 771.679688 470.121094 771.707031 470.042969 C 771.726562 470.042969 771.726562 470.015625 771.726562 470.015625 C 771.726562 469.992188 771.726562 469.992188 771.753906 469.964844 C 771.78125 469.914062 771.753906 469.839844 771.78125 469.761719 C 771.804688 469.683594 771.832031 469.609375 771.832031 469.503906 C 771.832031 469.429688 771.804688 469.351562 771.78125 469.273438 C 771.753906 469.199219 771.753906 469.121094 771.726562 469.042969 C 771.707031 468.96875 771.652344 468.890625 771.601562 468.8125 C 771.550781 468.765625 771.523438 468.6875 771.476562 468.636719 C 771.398438 468.5625 771.324219 468.535156 771.273438 468.484375 C 771.195312 468.433594 771.167969 468.382812 771.09375 468.359375 L 770.527344 468.101562 C 765.984375 466.03125 762.890625 464.320312 760.828125 462.890625 C 760.808594 463.054688 760.789062 463.238281 760.769531 463.417969 C 760.785156 463.238281 760.800781 463.058594 760.816406 462.882812 C 760.984375 460.796875 761.140625 458.765625 761.292969 456.761719 C 762.082031 457.019531 762.949219 457.347656 763.867188 457.785156 C 766.597656 459.113281 769.484375 460.386719 772.957031 461.742188 C 780.285156 464.628906 785.855469 467.792969 789.992188 471.421875 C 792.648438 473.769531 794.691406 476.578125 795.890625 479.515625 L 796.121094 480.203125 C 796.144531 480.257812 796.199219 480.28125 796.222656 480.355469 C 796.300781 480.507812 796.402344 480.640625 796.527344 480.765625 C 796.605469 480.816406 796.679688 480.84375 796.785156 480.890625 C 796.835938 480.945312 796.910156 480.996094 796.988281 481.023438 C 801.738281 482.65625 806.488281 484.265625 811.242188 485.871094 C 810.648438 480.410156 809.066406 475.53125 806.15625 472.976562 C 804.421875 471.46875 802.273438 470.855469 799.75 471.164062 C 799.566406 471.191406 799.386719 471.191406 799.183594 471.242188 C 797.652344 471.46875 795.992188 472.035156 794.179688 472.925781 C 793.566406 473.234375 792.800781 472.976562 792.46875 472.339844 C 792.164062 471.699219 792.441406 470.933594 793.054688 470.625 C 794.867188 469.734375 796.527344 469.171875 798.140625 468.839844 C 798.167969 468.839844 798.167969 468.8125 798.214844 468.8125 C 798.292969 468.789062 798.371094 468.789062 798.445312 468.789062 C 799.007812 468.660156 799.570312 468.582031 800.105469 468.558594 C 809.605469 467.304688 819.640625 468.28125 829.066406 469.195312 C 839.027344 470.167969 849.980469 470.910156 859.304688 474.765625 C 860.8125 475.402344 860.144531 477.855469 858.613281 477.242188 C 849.523438 473.460938 838.769531 472.644531 829.066406 471.75 C 821.96875 471.085938 814.457031 470.296875 807.128906 470.527344 C 807.359375 470.703125 807.617188 470.832031 807.820312 471.035156 C 815.914062 478.109375 814.765625 497.976562 811.878906 506.660156 C 809.9375 512.097656 805.441406 524.8125 795.023438 525.8125 C 794.792969 525.835938 794.589844 525.835938 794.359375 525.835938 C 794.15625 525.835938 793.949219 525.785156 793.746094 525.757812 C 806.054688 534.492188 831.898438 540.925781 838.898438 541.972656 C 841.347656 541.921875 843.34375 541.847656 844.695312 541.742188 C 863.058594 540.339844 880.191406 520.929688 882.109375 505.816406 L 882.234375 504.714844 C 882.773438 500.578125 883.230469 497.007812 882.875 492.664062 C 881.75 478.339844 871.433594 464.78125 862.339844 452.828125 C 859.941406 449.664062 857.667969 446.648438 855.652344 443.789062 C 848.015625 432.859375 835.957031 419.886719 824.316406 407.351562 C 817.445312 399.949219 810.957031 392.949219 805.851562 386.898438 C 791.394531 369.6875 772.039062 356.332031 763.535156 352.707031 C 753.550781 348.441406 741.496094 345.761719 728.75 344.941406 L 717.105469 343.71875 C 712.40625 342.746094 693.511719 339.273438 690.675781 338.765625 C 688.8125 336.953125 689.015625 333.910156 689.246094 330.976562 C 689.273438 330.386719 689.320312 329.824219 689.347656 329.289062 C 689.449219 326.480469 689.5 324.4375 689.523438 322.191406 C 689.550781 321.140625 689.550781 319.996094 689.578125 318.742188 C 692.363281 316.570312 694.886719 314.144531 697.035156 311.441406 C 701.910156 305.261719 705.5625 297.269531 707.632812 288.304688 C 708.117188 286.082031 708.578125 283.941406 709.007812 281.792969 C 713.582031 278.605469 716.722656 273.597656 717.464844 267.925781 C 718.027344 263.636719 715.550781 259.628906 712.332031 258.914062 C 713.554688 245.582031 713.53125 231.003906 709.007812 217.007812 C 703.855469 201.152344 692.207031 190.429688 677.039062 187.59375 C 669.710938 186.214844 662.152344 186.191406 654.820312 186.140625 L 654.363281 186.140625 C 646.980469 186.085938 639.320312 186.0625 632.066406 188.15625 C 625.375 190.070312 616.054688 195.257812 611.328125 202.097656 C 609.335938 205.007812 605.6875 210.828125 603.820312 217.007812 C 599.277344 230.976562 599.25 245.582031 600.476562 258.9375 C 596.976562 258.53125 593.914062 262.4375 593.683594 266.910156 C 593.300781 273.671875 598.28125 280.132812 604.078125 283.328125 C 604.433594 284.988281 604.792969 286.671875 605.199219 288.433594 C 607.246094 297.34375 610.898438 305.3125 615.800781 311.519531 C 617.816406 314.046875 620.140625 316.34375 622.71875 318.414062 C 622.746094 319.816406 622.773438 321.042969 622.796875 322.195312 C 622.824219 324.441406 622.851562 326.484375 622.976562 329.289062 C 623.003906 329.828125 623.027344 330.390625 623.078125 330.949219 C 623.28125 333.914062 623.511719 336.953125 621.648438 338.765625 C 618.8125 339.277344 599.914062 342.75 595.320312 343.691406 L 583.621094 344.945312 C 570.800781 345.761719 558.773438 348.441406 548.789062 352.710938 C 540.261719 356.335938 520.925781 369.691406 506.445312 386.902344 C 501.363281 392.949219 494.878906 399.949219 488.007812 407.328125 C 476.339844 419.890625 464.285156 432.863281 456.675781 443.792969 C 454.652344 446.652344 452.386719 449.664062 449.980469 452.832031 C 440.894531 464.785156 430.574219 478.34375 429.421875 492.667969 C 429.09375 497.035156 429.550781 500.609375 430.089844 504.746094 L 430.214844 505.820312 C 432.132812 520.933594 449.242188 540.34375 467.628906 541.746094 C 468.496094 541.820312 469.644531 541.875 471 541.898438 C 480.628906 541.03125 506.089844 533.191406 517.554688 525.941406 C 516.304688 525.863281 514.972656 525.53125 513.621094 524.921875 C 504.402344 520.683594 500.265625 508.882812 498.835938 499.460938 C 497.40625 489.933594 498.554688 475.636719 505.753906 470.628906 C 498.328125 470.351562 490.714844 471.117188 483.515625 471.804688 C 473.703125 472.726562 462.902344 473.4375 453.683594 477.246094 C 452.15625 477.859375 451.511719 475.40625 453.019531 474.769531 C 462.367188 470.914062 473.53125 470.148438 483.515625 469.253906 C 493.703125 468.359375 504.507812 467.234375 514.667969 468.921875 C 514.953125 468.96875 515.128906 469.101562 515.28125 469.253906 C 516.535156 469.558594 517.890625 470.015625 519.320312 470.65625 C 520.824219 471.347656 519.523438 473.542969 518.042969 472.878906 C 506.703125 467.695312 502.285156 476.402344 501.132812 485.851562 C 505.859375 484.242188 510.582031 482.632812 515.308594 481.027344 C 515.40625 481 515.460938 480.949219 515.539062 480.894531 C 515.617188 480.847656 515.714844 480.820312 515.769531 480.769531 C 515.921875 480.644531 516.023438 480.492188 516.074219 480.335938 C 516.097656 480.28125 516.175781 480.257812 516.203125 480.207031 L 516.382812 479.621094 C 517.605469 476.578125 519.648438 473.773438 522.304688 471.425781 C 526.441406 467.796875 532.011719 464.632812 539.363281 461.746094 C 542.835938 460.367188 545.722656 459.117188 548.457031 457.789062 C 550.695312 456.691406 552.632812 456.210938 553.882812 456.332031 C 553.882812 456.335938 553.882812 456.335938 553.882812 456.339844 C 553.996094 457.769531 554.105469 459.222656 554.222656 460.691406 C 554.222656 460.695312 554.222656 460.703125 554.222656 460.703125 C 552.507812 462.414062 548.960938 464.835938 541.765625 468.105469 L 541.230469 468.359375 C 541.152344 468.386719 541.101562 468.433594 541.050781 468.488281 C 540.972656 468.539062 540.898438 468.566406 540.847656 468.640625 C 540.796875 468.691406 540.742188 468.765625 540.695312 468.816406 C 540.667969 468.894531 540.617188 468.96875 540.566406 469.046875 C 540.539062 469.125 540.539062 469.199219 540.511719 469.277344 C 540.511719 469.355469 540.492188 469.429688 540.492188 469.507812 C 540.492188 469.609375 540.511719 469.6875 540.511719 469.765625 C 540.539062 469.84375 540.539062 469.917969 540.566406 469.96875 C 540.566406 469.996094 540.566406 469.996094 540.589844 470.019531 L 540.589844 470.046875 C 540.617188 470.121094 540.695312 470.171875 540.71875 470.25 C 540.769531 470.304688 540.820312 470.378906 540.871094 470.429688 C 540.925781 470.507812 541 470.53125 541.078125 470.582031 C 541.152344 470.632812 541.203125 470.660156 541.28125 470.707031 C 541.359375 470.734375 541.433594 470.734375 541.511719 470.761719 C 541.585938 470.761719 541.664062 470.785156 541.765625 470.785156 C 541.84375 470.785156 541.921875 470.761719 541.996094 470.761719 C 542.074219 470.734375 542.152344 470.734375 542.199219 470.707031 C 545.855469 469.304688 549.988281 467.289062 554.203125 465.167969 C 555.609375 464.453125 557.0625 463.714844 558.46875 462.972656 C 558.671875 462.871094 558.851562 462.792969 559.054688 462.695312 C 563.652344 460.316406 567.996094 458.097656 571.796875 456.515625 C 575.015625 455.132812 576.445312 455.210938 577.109375 455.519531 C 577.3125 455.59375 577.542969 455.769531 577.699219 456.230469 C 578.359375 458.300781 575.835938 460.726562 575.042969 461.417969 C 573.996094 462.332031 572.871094 463.152344 571.75 463.96875 C 570.089844 464.988281 568.453125 466.035156 566.84375 467.082031 L 565.796875 467.722656 C 564.878906 468.257812 563.929688 468.742188 562.988281 469.230469 C 561.074219 470.199219 559.183594 471.121094 557.371094 471.964844 C 556.78125 472.214844 556.167969 472.5 555.554688 472.753906 C 554.535156 473.210938 553.492188 473.699219 552.464844 474.210938 C 552.007812 474.441406 551.546875 474.667969 551.113281 474.921875 C 550.5 475.285156 550.296875 476.050781 550.652344 476.660156 C 550.882812 477.070312 551.316406 477.300781 551.753906 477.300781 C 551.980469 477.300781 552.1875 477.222656 552.390625 477.117188 C 552.515625 477.042969 552.667969 476.992188 552.800781 476.914062 C 554 476.253906 555.304688 475.664062 556.578125 475.101562 C 557.214844 474.824219 557.828125 474.566406 558.441406 474.285156 C 560.027344 473.546875 561.660156 472.753906 563.320312 471.9375 C 564.496094 471.347656 565.695312 470.710938 566.867188 470.046875 C 566.894531 470.046875 566.945312 470.046875 566.972656 470.019531 L 567.097656 469.941406 C 569.195312 468.769531 571.238281 467.464844 573.203125 466.0625 C 575.324219 464.761719 577.464844 463.484375 579.664062 462.3125 C 581.273438 461.46875 582.984375 461.929688 583.875 463.28125 C 584.210938 463.996094 585.179688 466.191406 580.917969 469.511719 C 576.066406 473.828125 569.578125 477.425781 563.394531 480.515625 C 561.074219 481.691406 558.800781 482.761719 556.679688 483.785156 C 556.042969 484.09375 555.757812 484.859375 556.066406 485.496094 C 556.273438 485.929688 556.734375 486.214844 557.214844 486.214844 C 557.394531 486.214844 557.601562 486.160156 557.78125 486.082031 C 559.515625 485.265625 561.378906 484.371094 563.269531 483.453125 C 567.816406 481.207031 572.617188 478.703125 576.910156 475.796875 C 579.203125 474.414062 580.789062 473.265625 582.0625 472.320312 C 583.039062 471.582031 583.878906 470.96875 584.796875 470.457031 C 585.746094 469.894531 586.5625 469.972656 586.996094 470.226562 C 587.453125 470.507812 587.558594 470.996094 587.53125 471.351562 C 587.503906 473.417969 585.613281 475.054688 583.828125 476.636719 C 583.367188 477.042969 582.90625 477.429688 582.550781 477.761719 C 575.324219 483.96875 568.683594 488.382812 562.761719 491.011719 C 560.996094 491.808594 559.285156 492.441406 557.648438 492.902344 C 556.964844 493.082031 556.554688 493.796875 556.757812 494.457031 C 556.910156 495.050781 557.421875 495.40625 557.984375 495.40625 C 558.085938 495.40625 558.214844 495.378906 558.339844 495.355469 C 559.746094 494.972656 561.226562 494.40625 562.710938 493.796875 C 567.152344 491.980469 571.851562 489.25 576.984375 485.472656 C 578.667969 484.140625 580.230469 483.660156 581.527344 484.015625 C 582.578125 484.324219 583.214844 485.167969 583.472656 485.828125 C 583.777344 486.695312 582.140625 488.484375 580.789062 489.507812 C 575.097656 494.664062 567.484375 498.675781 562.785156 500.84375 C 560.230469 502.042969 558.519531 502.707031 558.445312 502.734375 C 558.417969 502.757812 557.601562 503.140625 556.398438 503.652344 C 554.765625 504.367188 552.441406 505.3125 550.605469 505.746094 C 550.21875 505.824219 549.835938 505.902344 549.425781 505.976562 C 540.566406 507.074219 536.558594 507.148438 527.820312 506.820312 C 527.722656 506.820312 527.617188 506.820312 527.515625 506.84375 L 526.671875 507.023438 C 526.421875 506.996094 526.164062 507.101562 525.910156 507.304688 C 525.882812 507.304688 525.882812 507.332031 525.855469 507.332031 C 525.832031 507.378906 525.777344 507.40625 525.730469 507.457031 C 522 511.976562 516.691406 518.15625 510.761719 519.84375 C 514.054688 522.957031 518.425781 524.949219 522.714844 521.933594 C 527.03125 518.894531 528.742188 514.351562 528.460938 509.21875 C 528.386719 507.582031 530.9375 507.582031 531.015625 509.21875 C 531.320312 514.835938 528.359375 521.453125 523.609375 524.410156 C 517.480469 530.953125 497.867188 538.277344 483.363281 542.035156 C 494.292969 542.007812 508.210938 541.804688 518.882812 541.621094 C 525.21875 541.546875 530.351562 541.441406 532.980469 541.441406 C 537.886719 541.441406 542.8125 541.441406 547.71875 541.46875 C 552.773438 541.519531 557.828125 541.519531 562.886719 541.519531 C 563.191406 543.410156 563.5 545.25 563.832031 546.988281 L 563.988281 547.851562 L 564.851562 548.007812 C 565.515625 548.136719 630 559.546875 657.019531 573.464844 L 657.609375 573.773438 L 658.195312 573.464844 C 661.542969 571.757812 665.449219 570.070312 669.738281 568.4375 L 708.378906 579.003906 L 685.394531 589.554688 C 684.242188 590.0625 683.351562 590.984375 682.917969 592.15625 C 682.457031 593.328125 682.507812 594.582031 683.015625 595.734375 L 683.375 596.496094 C 684.117188 598.183594 685.804688 599.257812 687.640625 599.257812 C 688.300781 599.257812 688.96875 599.128906 689.582031 598.847656 L 723.699219 583.195312 L 790.9375 601.550781 C 791.042969 601.578125 791.167969 601.578125 791.273438 601.578125 C 791.398438 601.578125 791.503906 601.578125 791.628906 601.53125 L 805.164062 597.699219 C 806.949219 599.28125 808.996094 600.148438 811.140625 600.148438 C 814.972656 600.148438 818.34375 597.46875 820.3125 593.40625 L 823.269531 592.566406 C 825.03125 594.300781 827.152344 595.246094 829.347656 595.246094 C 833.128906 595.246094 836.449219 592.460938 838.234375 588.300781 L 841.65625 587.328125 C 843.0625 588.328125 844.59375 588.886719 846.175781 588.886719 C 849.21875 588.886719 851.875 586.917969 853.660156 583.933594 L 857.464844 582.859375 C 858.921875 584.011719 860.582031 584.648438 862.292969 584.648438 C 865.457031 584.648438 868.242188 582.53125 870.003906 579.289062 L 873.296875 578.367188 C 874.832031 579.671875 876.566406 580.382812 878.40625 580.382812 C 881.726562 580.382812 884.636719 578.109375 886.375 574.664062 L 903.792969 569.710938 C 904.351562 569.558594 904.734375 569.046875 904.734375 568.484375 L 904.734375 555.746094 C 904.734375 555.054688 904.171875 554.488281 903.484375 554.46875 " fill-opacity="1" fill-rule="nonzero"/></g><path fill="#100f0d" d="M 658.226562 292.707031 C 659.871094 292.679688 659.875 290.128906 658.226562 290.148438 C 651.398438 290.257812 655.316406 281.605469 655.910156 278.347656 C 657.0625 272.050781 658.730469 265.960938 658.746094 259.523438 C 658.75 257.875 656.191406 257.875 656.1875 259.523438 C 656.171875 268.347656 652.910156 276.503906 651.84375 285.140625 C 651.238281 290.046875 653.15625 292.78125 658.226562 292.707031 " fill-opacity="1" fill-rule="nonzero"/><path fill="#100f0d" d="M 637.707031 253.835938 C 638.941406 253.960938 643.316406 255.238281 644.085938 253.636719 C 645.179688 251.339844 639.199219 249.4375 637.929688 249.089844 C 633.773438 247.960938 629.285156 248.289062 625.328125 250.011719 C 624.519531 250.363281 619.765625 252.550781 621.328125 254.082031 C 622.871094 255.597656 626.339844 254.492188 628.167969 254.242188 C 631.332031 253.792969 634.511719 253.5 637.707031 253.835938 " fill-opacity="1" fill-rule="nonzero"/><path fill="#100f0d" d="M 673.492188 253.835938 C 676.6875 253.5 679.863281 253.792969 683.03125 254.242188 C 684.855469 254.492188 688.324219 255.597656 689.871094 254.082031 C 691.433594 252.550781 686.679688 250.363281 685.871094 250.011719 C 681.914062 248.289062 677.421875 247.960938 673.265625 249.089844 C 671.996094 249.4375 666.015625 251.339844 667.113281 253.636719 C 667.882812 255.238281 672.261719 253.964844 673.492188 253.835938 " fill-opacity="1" fill-rule="nonzero"/><path fill="#100f0d" d="M 632.910156 259.644531 C 634.886719 259.65625 636.472656 262.207031 636.460938 265.339844 C 636.441406 268.476562 634.828125 271.007812 632.851562 271 C 630.878906 270.988281 629.289062 268.4375 629.308594 265.304688 C 629.324219 262.167969 630.941406 259.636719 632.910156 259.644531 " fill-opacity="1" fill-rule="nonzero"/><path fill="#100f0d" d="M 675.238281 265.257812 C 675.257812 262.125 676.871094 259.59375 678.847656 259.597656 C 680.820312 259.609375 682.40625 262.164062 682.390625 265.296875 C 682.375 268.429688 680.757812 270.964844 678.785156 270.957031 C 676.8125 270.945312 675.226562 268.394531 675.238281 265.257812 " fill-opacity="1" fill-rule="nonzero"/><path fill="#100f0d" d="M 644.007812 306.09375 C 649.710938 312.359375 660.496094 311.375 666.972656 306.835938 C 668.308594 305.902344 667.035156 303.683594 665.683594 304.632812 C 660.128906 308.523438 650.773438 309.742188 645.8125 304.289062 C 644.699219 303.066406 642.898438 304.878906 644.007812 306.09375 " fill-opacity="1" fill-rule="nonzero"/><g fill="#ffffff" fill-opacity="1"><g transform="translate(54.787428, 136.766734)"><g><path d="M 3.78125 -30.65625 C 3.78125 -36.625 5.125 -41.992188 7.8125 -46.765625 C 10.507812 -51.535156 14.1875 -55.265625 18.84375 -57.953125 C 23.5 -60.648438 28.664062 -62 34.34375 -62 C 41.019531 -62 46.84375 -60.390625 51.8125 -57.171875 C 56.789062 -53.953125 60.421875 -49.382812 62.703125 -43.46875 L 53.140625 -43.46875 C 51.441406 -47.164062 48.992188 -50.007812 45.796875 -52 C 42.609375 -53.988281 38.789062 -54.984375 34.34375 -54.984375 C 30.0625 -54.984375 26.222656 -53.988281 22.828125 -52 C 19.429688 -50.007812 16.765625 -47.179688 14.828125 -43.515625 C 12.898438 -39.859375 11.9375 -35.570312 11.9375 -30.65625 C 11.9375 -25.789062 12.898438 -21.53125 14.828125 -17.875 C 16.765625 -14.21875 19.429688 -11.390625 22.828125 -9.390625 C 26.222656 -7.398438 30.0625 -6.40625 34.34375 -6.40625 C 38.789062 -6.40625 42.609375 -7.382812 45.796875 -9.34375 C 48.992188 -11.3125 51.441406 -14.140625 53.140625 -17.828125 L 62.703125 -17.828125 C 60.421875 -11.972656 56.789062 -7.445312 51.8125 -4.25 C 46.84375 -1.0625 41.019531 0.53125 34.34375 0.53125 C 28.664062 0.53125 23.5 -0.800781 18.84375 -3.46875 C 14.1875 -6.132812 10.507812 -9.835938 7.8125 -14.578125 C 5.125 -19.316406 3.78125 -24.675781 3.78125 -30.65625 Z M 3.78125 -30.65625 "/></g></g></g><g fill="#ffffff" fill-opacity="1"><g transform="translate(122.594866, 136.766734)"><g><path d="M 14.75 -40.3125 C 16.15625 -43.0625 18.160156 -45.195312 20.765625 -46.71875 C 23.378906 -48.25 26.554688 -49.015625 30.296875 -49.015625 L 30.296875 -40.75 L 28.1875 -40.75 C 19.226562 -40.75 14.75 -35.890625 14.75 -26.171875 L 14.75 0 L 6.765625 0 L 6.765625 -48.125 L 14.75 -48.125 Z M 14.75 -40.3125 "/></g></g></g><g fill="#ffffff" fill-opacity="1"><g transform="translate(155.356753, 136.766734)"><g><path d="M 50.671875 -25.90625 C 50.671875 -24.382812 50.582031 -22.773438 50.40625 -21.078125 L 11.9375 -21.078125 C 12.238281 -16.335938 13.863281 -12.632812 16.8125 -9.96875 C 19.769531 -7.300781 23.359375 -5.96875 27.578125 -5.96875 C 31.035156 -5.96875 33.921875 -6.769531 36.234375 -8.375 C 38.546875 -9.988281 40.171875 -12.144531 41.109375 -14.84375 L 49.703125 -14.84375 C 48.421875 -10.21875 45.847656 -6.453125 41.984375 -3.546875 C 38.117188 -0.648438 33.316406 0.796875 27.578125 0.796875 C 23.015625 0.796875 18.929688 -0.226562 15.328125 -2.28125 C 11.722656 -4.332031 8.894531 -7.242188 6.84375 -11.015625 C 4.800781 -14.796875 3.78125 -19.175781 3.78125 -24.15625 C 3.78125 -29.132812 4.773438 -33.492188 6.765625 -37.234375 C 8.753906 -40.984375 11.546875 -43.867188 15.140625 -45.890625 C 18.742188 -47.910156 22.890625 -48.921875 27.578125 -48.921875 C 32.140625 -48.921875 36.175781 -47.925781 39.6875 -45.9375 C 43.207031 -43.945312 45.914062 -41.207031 47.8125 -37.71875 C 49.71875 -34.238281 50.671875 -30.300781 50.671875 -25.90625 Z M 42.421875 -27.578125 C 42.421875 -30.617188 41.742188 -33.238281 40.390625 -35.4375 C 39.046875 -37.632812 37.21875 -39.300781 34.90625 -40.4375 C 32.59375 -41.582031 30.035156 -42.15625 27.234375 -42.15625 C 23.191406 -42.15625 19.75 -40.863281 16.90625 -38.28125 C 14.0625 -35.707031 12.4375 -32.140625 12.03125 -27.578125 Z M 42.421875 -27.578125 "/></g></g></g><g fill="#ffffff" fill-opacity="1"><g transform="translate(209.813507, 136.766734)"><g><path d="M 3.78125 -24.234375 C 3.78125 -29.160156 4.773438 -33.476562 6.765625 -37.1875 C 8.753906 -40.90625 11.488281 -43.789062 14.96875 -45.84375 C 18.457031 -47.894531 22.335938 -48.921875 26.609375 -48.921875 C 30.828125 -48.921875 34.488281 -48.007812 37.59375 -46.1875 C 40.695312 -44.375 43.007812 -42.09375 44.53125 -39.34375 L 44.53125 -48.125 L 52.609375 -48.125 L 52.609375 0 L 44.53125 0 L 44.53125 -8.953125 C 42.945312 -6.148438 40.585938 -3.820312 37.453125 -1.96875 C 34.328125 -0.125 30.6875 0.796875 26.53125 0.796875 C 22.25 0.796875 18.378906 -0.253906 14.921875 -2.359375 C 11.472656 -4.472656 8.753906 -7.429688 6.765625 -11.234375 C 4.773438 -15.046875 3.78125 -19.378906 3.78125 -24.234375 Z M 44.53125 -24.15625 C 44.53125 -27.78125 43.796875 -30.9375 42.328125 -33.625 C 40.867188 -36.320312 38.894531 -38.390625 36.40625 -39.828125 C 33.914062 -41.265625 31.175781 -41.984375 28.1875 -41.984375 C 25.207031 -41.984375 22.488281 -41.28125 20.03125 -39.875 C 17.570312 -38.46875 15.609375 -36.414062 14.140625 -33.71875 C 12.671875 -31.03125 11.9375 -27.867188 11.9375 -24.234375 C 11.9375 -20.546875 12.671875 -17.34375 14.140625 -14.625 C 15.609375 -11.90625 17.570312 -9.828125 20.03125 -8.390625 C 22.488281 -6.953125 25.207031 -6.234375 28.1875 -6.234375 C 31.175781 -6.234375 33.914062 -6.953125 36.40625 -8.390625 C 38.894531 -9.828125 40.867188 -11.90625 42.328125 -14.625 C 43.796875 -17.34375 44.53125 -20.519531 44.53125 -24.15625 Z M 44.53125 -24.15625 "/></g></g></g><g fill="#ffffff" fill-opacity="1"><g transform="translate(269.188933, 136.766734)"><g><path d="M 16.515625 -41.546875 L 16.515625 -13.171875 C 16.515625 -10.828125 17.007812 -9.171875 18 -8.203125 C 19 -7.242188 20.726562 -6.765625 23.1875 -6.765625 L 29.078125 -6.765625 L 29.078125 0 L 21.875 0 C 17.414062 0 14.070312 -1.019531 11.84375 -3.0625 C 9.625 -5.113281 8.515625 -8.484375 8.515625 -13.171875 L 8.515625 -41.546875 L 2.28125 -41.546875 L 2.28125 -48.125 L 8.515625 -48.125 L 8.515625 -60.25 L 16.515625 -60.25 L 16.515625 -48.125 L 29.078125 -48.125 L 29.078125 -41.546875 Z M 16.515625 -41.546875 "/></g></g></g><g fill="#ffffff" fill-opacity="1"><g transform="translate(301.160318, 136.766734)"><g><path d="M 50.671875 -25.90625 C 50.671875 -24.382812 50.582031 -22.773438 50.40625 -21.078125 L 11.9375 -21.078125 C 12.238281 -16.335938 13.863281 -12.632812 16.8125 -9.96875 C 19.769531 -7.300781 23.359375 -5.96875 27.578125 -5.96875 C 31.035156 -5.96875 33.921875 -6.769531 36.234375 -8.375 C 38.546875 -9.988281 40.171875 -12.144531 41.109375 -14.84375 L 49.703125 -14.84375 C 48.421875 -10.21875 45.847656 -6.453125 41.984375 -3.546875 C 38.117188 -0.648438 33.316406 0.796875 27.578125 0.796875 C 23.015625 0.796875 18.929688 -0.226562 15.328125 -2.28125 C 11.722656 -4.332031 8.894531 -7.242188 6.84375 -11.015625 C 4.800781 -14.796875 3.78125 -19.175781 3.78125 -24.15625 C 3.78125 -29.132812 4.773438 -33.492188 6.765625 -37.234375 C 8.753906 -40.984375 11.546875 -43.867188 15.140625 -45.890625 C 18.742188 -47.910156 22.890625 -48.921875 27.578125 -48.921875 C 32.140625 -48.921875 36.175781 -47.925781 39.6875 -45.9375 C 43.207031 -43.945312 45.914062 -41.207031 47.8125 -37.71875 C 49.71875 -34.238281 50.671875 -30.300781 50.671875 -25.90625 Z M 42.421875 -27.578125 C 42.421875 -30.617188 41.742188 -33.238281 40.390625 -35.4375 C 39.046875 -37.632812 37.21875 -39.300781 34.90625 -40.4375 C 32.59375 -41.582031 30.035156 -42.15625 27.234375 -42.15625 C 23.191406 -42.15625 19.75 -40.863281 16.90625 -38.28125 C 14.0625 -35.707031 12.4375 -32.140625 12.03125 -27.578125 Z M 42.421875 -27.578125 "/></g></g></g><g fill="#ffffff" fill-opacity="1"><g transform="translate(355.617072, 136.766734)"><g/></g></g><g fill="#ffffff" fill-opacity="1"><g transform="translate(379.068592, 136.766734)"><g><path d="M 3.78125 -24.234375 C 3.78125 -29.160156 4.773438 -33.476562 6.765625 -37.1875 C 8.753906 -40.90625 11.488281 -43.789062 14.96875 -45.84375 C 18.457031 -47.894531 22.335938 -48.921875 26.609375 -48.921875 C 30.828125 -48.921875 34.488281 -48.007812 37.59375 -46.1875 C 40.695312 -44.375 43.007812 -42.09375 44.53125 -39.34375 L 44.53125 -48.125 L 52.609375 -48.125 L 52.609375 0 L 44.53125 0 L 44.53125 -8.953125 C 42.945312 -6.148438 40.585938 -3.820312 37.453125 -1.96875 C 34.328125 -0.125 30.6875 0.796875 26.53125 0.796875 C 22.25 0.796875 18.378906 -0.253906 14.921875 -2.359375 C 11.472656 -4.472656 8.753906 -7.429688 6.765625 -11.234375 C 4.773438 -15.046875 3.78125 -19.378906 3.78125 -24.234375 Z M 44.53125 -24.15625 C 44.53125 -27.78125 43.796875 -30.9375 42.328125 -33.625 C 40.867188 -36.320312 38.894531 -38.390625 36.40625 -39.828125 C 33.914062 -41.265625 31.175781 -41.984375 28.1875 -41.984375 C 25.207031 -41.984375 22.488281 -41.28125 20.03125 -39.875 C 17.570312 -38.46875 15.609375 -36.414062 14.140625 -33.71875 C 12.671875 -31.03125 11.9375 -27.867188 11.9375 -24.234375 C 11.9375 -20.546875 12.671875 -17.34375 14.140625 -14.625 C 15.609375 -11.90625 17.570312 -9.828125 20.03125 -8.390625 C 22.488281 -6.953125 25.207031 -6.234375 28.1875 -6.234375 C 31.175781 -6.234375 33.914062 -6.953125 36.40625 -8.390625 C 38.894531 -9.828125 40.867188 -11.90625 42.328125 -14.625 C 43.796875 -17.34375 44.53125 -20.519531 44.53125 -24.15625 Z M 44.53125 -24.15625 "/></g></g></g><g fill="#ffffff" fill-opacity="1"><g transform="translate(438.444017, 136.766734)"><g/></g></g><g fill="#ffffff" fill-opacity="1"><g transform="translate(461.892887, 136.766734)"><g><path d="M 52.4375 -41.8125 C 52.4375 -38.238281 51.613281 -34.972656 49.96875 -32.015625 C 48.332031 -29.054688 45.816406 -26.664062 42.421875 -24.84375 C 39.023438 -23.03125 34.8125 -22.125 29.78125 -22.125 L 20.46875 -22.125 L 20.46875 0 L 5.453125 0 L 5.453125 -61.65625 L 29.78125 -61.65625 C 34.695312 -61.65625 38.851562 -60.804688 42.25 -59.109375 C 45.644531 -57.410156 48.191406 -55.066406 49.890625 -52.078125 C 51.585938 -49.097656 52.4375 -45.675781 52.4375 -41.8125 Z M 28.625 -34.078125 C 31.5 -34.078125 33.640625 -34.75 35.046875 -36.09375 C 36.453125 -37.445312 37.15625 -39.351562 37.15625 -41.8125 C 37.15625 -44.269531 36.453125 -46.171875 35.046875 -47.515625 C 33.640625 -48.859375 31.5 -49.53125 28.625 -49.53125 L 20.46875 -49.53125 L 20.46875 -34.078125 Z M 28.625 -34.078125 "/></g></g></g><g fill="#ffffff" fill-opacity="1"><g transform="translate(516.700977, 136.766734)"><g><path d="M 51.640625 -25.296875 C 51.640625 -23.890625 51.550781 -22.425781 51.375 -20.90625 L 17.390625 -20.90625 C 17.617188 -17.863281 18.597656 -15.535156 20.328125 -13.921875 C 22.054688 -12.304688 24.179688 -11.5 26.703125 -11.5 C 30.453125 -11.5 33.054688 -13.082031 34.515625 -16.25 L 50.5 -16.25 C 49.675781 -13.03125 48.195312 -10.128906 46.0625 -7.546875 C 43.925781 -4.972656 41.25 -2.953125 38.03125 -1.484375 C 34.8125 -0.0234375 31.210938 0.703125 27.234375 0.703125 C 22.429688 0.703125 18.15625 -0.320312 14.40625 -2.375 C 10.65625 -4.425781 7.722656 -7.351562 5.609375 -11.15625 C 3.503906 -14.957031 2.453125 -19.40625 2.453125 -24.5 C 2.453125 -29.59375 3.488281 -34.039062 5.5625 -37.84375 C 7.644531 -41.65625 10.5625 -44.582031 14.3125 -46.625 C 18.0625 -48.675781 22.367188 -49.703125 27.234375 -49.703125 C 31.972656 -49.703125 36.1875 -48.707031 39.875 -46.71875 C 43.5625 -44.726562 46.441406 -41.890625 48.515625 -38.203125 C 50.597656 -34.515625 51.640625 -30.210938 51.640625 -25.296875 Z M 36.265625 -29.25 C 36.265625 -31.820312 35.382812 -33.867188 33.625 -35.390625 C 31.875 -36.910156 29.679688 -37.671875 27.046875 -37.671875 C 24.535156 -37.671875 22.414062 -36.9375 20.6875 -35.46875 C 18.957031 -34.007812 17.890625 -31.9375 17.484375 -29.25 Z M 36.265625 -29.25 "/></g></g></g><g fill="#ffffff" fill-opacity="1"><g transform="translate(570.806396, 136.766734)"><g><path d="M 20.46875 -40.84375 C 22.21875 -43.53125 24.410156 -45.648438 27.046875 -47.203125 C 29.679688 -48.753906 32.609375 -49.53125 35.828125 -49.53125 L 35.828125 -33.640625 L 31.703125 -33.640625 C 27.953125 -33.640625 25.140625 -32.832031 23.265625 -31.21875 C 21.398438 -29.613281 20.46875 -26.789062 20.46875 -22.75 L 20.46875 0 L 5.453125 0 L 5.453125 -49.015625 L 20.46875 -49.015625 Z M 20.46875 -40.84375 "/></g></g></g><g fill="#ffffff" fill-opacity="1"><g transform="translate(608.399124, 136.766734)"><g><path d="M 30.03125 -36.53125 L 21.953125 -36.53125 L 21.953125 0 L 6.9375 0 L 6.9375 -36.53125 L 1.5 -36.53125 L 1.5 -49.015625 L 6.9375 -49.015625 L 6.9375 -50.40625 C 6.9375 -56.4375 8.660156 -61.019531 12.109375 -64.15625 C 15.566406 -67.289062 20.632812 -68.859375 27.3125 -68.859375 C 28.425781 -68.859375 29.25 -68.828125 29.78125 -68.765625 L 29.78125 -56.03125 C 26.90625 -56.207031 24.878906 -55.796875 23.703125 -54.796875 C 22.535156 -53.804688 21.953125 -52.023438 21.953125 -49.453125 L 21.953125 -49.015625 L 30.03125 -49.015625 Z M 30.03125 -36.53125 "/></g></g></g><g fill="#ffffff" fill-opacity="1"><g transform="translate(640.019175, 136.766734)"><g><path d="M 51.640625 -25.296875 C 51.640625 -23.890625 51.550781 -22.425781 51.375 -20.90625 L 17.390625 -20.90625 C 17.617188 -17.863281 18.597656 -15.535156 20.328125 -13.921875 C 22.054688 -12.304688 24.179688 -11.5 26.703125 -11.5 C 30.453125 -11.5 33.054688 -13.082031 34.515625 -16.25 L 50.5 -16.25 C 49.675781 -13.03125 48.195312 -10.128906 46.0625 -7.546875 C 43.925781 -4.972656 41.25 -2.953125 38.03125 -1.484375 C 34.8125 -0.0234375 31.210938 0.703125 27.234375 0.703125 C 22.429688 0.703125 18.15625 -0.320312 14.40625 -2.375 C 10.65625 -4.425781 7.722656 -7.351562 5.609375 -11.15625 C 3.503906 -14.957031 2.453125 -19.40625 2.453125 -24.5 C 2.453125 -29.59375 3.488281 -34.039062 5.5625 -37.84375 C 7.644531 -41.65625 10.5625 -44.582031 14.3125 -46.625 C 18.0625 -48.675781 22.367188 -49.703125 27.234375 -49.703125 C 31.972656 -49.703125 36.1875 -48.707031 39.875 -46.71875 C 43.5625 -44.726562 46.441406 -41.890625 48.515625 -38.203125 C 50.597656 -34.515625 51.640625 -30.210938 51.640625 -25.296875 Z M 36.265625 -29.25 C 36.265625 -31.820312 35.382812 -33.867188 33.625 -35.390625 C 31.875 -36.910156 29.679688 -37.671875 27.046875 -37.671875 C 24.535156 -37.671875 22.414062 -36.9375 20.6875 -35.46875 C 18.957031 -34.007812 17.890625 -31.9375 17.484375 -29.25 Z M 36.265625 -29.25 "/></g></g></g><g fill="#ffffff" fill-opacity="1"><g transform="translate(694.124594, 136.766734)"><g><path d="M 2.453125 -24.5 C 2.453125 -29.59375 3.488281 -34.039062 5.5625 -37.84375 C 7.644531 -41.65625 10.546875 -44.582031 14.265625 -46.625 C 17.984375 -48.675781 22.242188 -49.703125 27.046875 -49.703125 C 33.191406 -49.703125 38.328125 -48.09375 42.453125 -44.875 C 46.585938 -41.65625 49.300781 -37.117188 50.59375 -31.265625 L 34.609375 -31.265625 C 33.253906 -35.015625 30.644531 -36.890625 26.78125 -36.890625 C 24.03125 -36.890625 21.832031 -35.816406 20.1875 -33.671875 C 18.550781 -31.535156 17.734375 -28.476562 17.734375 -24.5 C 17.734375 -20.519531 18.550781 -17.460938 20.1875 -15.328125 C 21.832031 -13.191406 24.03125 -12.125 26.78125 -12.125 C 30.644531 -12.125 33.253906 -13.992188 34.609375 -17.734375 L 50.59375 -17.734375 C 49.300781 -12.003906 46.578125 -7.5 42.421875 -4.21875 C 38.265625 -0.9375 33.140625 0.703125 27.046875 0.703125 C 22.242188 0.703125 17.984375 -0.320312 14.265625 -2.375 C 10.546875 -4.425781 7.644531 -7.351562 5.5625 -11.15625 C 3.488281 -14.957031 2.453125 -19.40625 2.453125 -24.5 Z M 2.453125 -24.5 "/></g></g></g><g fill="#ffffff" fill-opacity="1"><g transform="translate(747.263826, 136.766734)"><g><path d="M 32.765625 -12.734375 L 32.765625 0 L 25.125 0 C 19.675781 0 15.425781 -1.332031 12.375 -4 C 9.332031 -6.664062 7.8125 -11.007812 7.8125 -17.03125 L 7.8125 -36.53125 L 1.84375 -36.53125 L 1.84375 -49.015625 L 7.8125 -49.015625 L 7.8125 -60.953125 L 22.828125 -60.953125 L 22.828125 -49.015625 L 32.671875 -49.015625 L 32.671875 -36.53125 L 22.828125 -36.53125 L 22.828125 -16.859375 C 22.828125 -15.398438 23.175781 -14.347656 23.875 -13.703125 C 24.582031 -13.054688 25.757812 -12.734375 27.40625 -12.734375 Z M 32.765625 -12.734375 "/></g></g></g><g fill="#ffffff" fill-opacity="1"><g transform="translate(782.919478, 136.766734)"><g/></g></g><g fill="#ffffff" fill-opacity="1"><g transform="translate(54.787428, 234.835122)"><g><path d="M 20.203125 -61.65625 L 20.203125 -24.765625 C 20.203125 -21.078125 21.109375 -18.238281 22.921875 -16.25 C 24.734375 -14.257812 27.398438 -13.265625 30.921875 -13.265625 C 34.429688 -13.265625 37.125 -14.257812 39 -16.25 C 40.875 -18.238281 41.8125 -21.078125 41.8125 -24.765625 L 41.8125 -61.65625 L 56.828125 -61.65625 L 56.828125 -24.859375 C 56.828125 -19.347656 55.65625 -14.691406 53.3125 -10.890625 C 50.96875 -7.085938 47.816406 -4.21875 43.859375 -2.28125 C 39.910156 -0.351562 35.507812 0.609375 30.65625 0.609375 C 25.789062 0.609375 21.441406 -0.335938 17.609375 -2.234375 C 13.773438 -4.140625 10.742188 -7.007812 8.515625 -10.84375 C 6.296875 -14.675781 5.1875 -19.347656 5.1875 -24.859375 L 5.1875 -61.65625 Z M 20.203125 -61.65625 "/></g></g></g><g fill="#ffffff" fill-opacity="1"><g transform="translate(116.710019, 234.835122)"><g><path d="M 20.46875 -42.0625 C 21.925781 -44.351562 23.941406 -46.195312 26.515625 -47.59375 C 29.097656 -49 32.117188 -49.703125 35.578125 -49.703125 C 39.609375 -49.703125 43.265625 -48.675781 46.546875 -46.625 C 49.828125 -44.582031 52.414062 -41.65625 54.3125 -37.84375 C 56.21875 -34.039062 57.171875 -29.625 57.171875 -24.59375 C 57.171875 -19.550781 56.21875 -15.113281 54.3125 -11.28125 C 52.414062 -7.445312 49.828125 -4.488281 46.546875 -2.40625 C 43.265625 -0.332031 39.609375 0.703125 35.578125 0.703125 C 32.171875 0.703125 29.164062 0 26.5625 -1.40625 C 23.957031 -2.8125 21.925781 -4.625 20.46875 -6.84375 L 20.46875 23.359375 L 5.453125 23.359375 L 5.453125 -49.015625 L 20.46875 -49.015625 Z M 41.890625 -24.59375 C 41.890625 -28.34375 40.847656 -31.285156 38.765625 -33.421875 C 36.691406 -35.554688 34.132812 -36.625 31.09375 -36.625 C 28.101562 -36.625 25.566406 -35.539062 23.484375 -33.375 C 21.410156 -31.207031 20.375 -28.25 20.375 -24.5 C 20.375 -20.757812 21.410156 -17.804688 23.484375 -15.640625 C 25.566406 -13.472656 28.101562 -12.390625 31.09375 -12.390625 C 34.082031 -12.390625 36.628906 -13.484375 38.734375 -15.671875 C 40.835938 -17.867188 41.890625 -20.84375 41.890625 -24.59375 Z M 41.890625 -24.59375 "/></g></g></g><g fill="#ffffff" fill-opacity="1"><g transform="translate(176.348949, 234.835122)"><g><path d="M 75.796875 -49.015625 L 62.53125 0 L 45.9375 0 L 38.203125 -31.796875 L 30.21875 0 L 13.703125 0 L 0.34375 -49.015625 L 15.375 -49.015625 L 22.3125 -13.96875 L 30.5625 -49.015625 L 46.46875 -49.015625 L 54.8125 -14.140625 L 61.65625 -49.015625 Z M 75.796875 -49.015625 "/></g></g></g><g fill="#ffffff" fill-opacity="1"><g transform="translate(252.412727, 234.835122)"><g><path d="M 27.75 0.703125 C 22.945312 0.703125 18.628906 -0.320312 14.796875 -2.375 C 10.960938 -4.425781 7.945312 -7.351562 5.75 -11.15625 C 3.550781 -14.957031 2.453125 -19.40625 2.453125 -24.5 C 2.453125 -29.539062 3.566406 -33.976562 5.796875 -37.8125 C 8.023438 -41.644531 11.070312 -44.582031 14.9375 -46.625 C 18.800781 -48.675781 23.128906 -49.703125 27.921875 -49.703125 C 32.722656 -49.703125 37.054688 -48.675781 40.921875 -46.625 C 44.785156 -44.582031 47.832031 -41.644531 50.0625 -37.8125 C 52.289062 -33.976562 53.40625 -29.539062 53.40625 -24.5 C 53.40625 -19.46875 52.273438 -15.035156 50.015625 -11.203125 C 47.765625 -7.367188 44.691406 -4.425781 40.796875 -2.375 C 36.898438 -0.320312 32.550781 0.703125 27.75 0.703125 Z M 27.75 -12.296875 C 30.625 -12.296875 33.070312 -13.347656 35.09375 -15.453125 C 37.113281 -17.566406 38.125 -20.582031 38.125 -24.5 C 38.125 -28.425781 37.140625 -31.441406 35.171875 -33.546875 C 33.210938 -35.660156 30.796875 -36.71875 27.921875 -36.71875 C 24.992188 -36.71875 22.5625 -35.675781 20.625 -33.59375 C 18.695312 -31.507812 17.734375 -28.476562 17.734375 -24.5 C 17.734375 -20.582031 18.6875 -17.566406 20.59375 -15.453125 C 22.5 -13.347656 24.882812 -12.296875 27.75 -12.296875 Z M 27.75 -12.296875 "/></g></g></g><g fill="#ffffff" fill-opacity="1"><g transform="translate(308.362641, 234.835122)"><g><path d="M 20.46875 -40.84375 C 22.21875 -43.53125 24.410156 -45.648438 27.046875 -47.203125 C 29.679688 -48.753906 32.609375 -49.53125 35.828125 -49.53125 L 35.828125 -33.640625 L 31.703125 -33.640625 C 27.953125 -33.640625 25.140625 -32.832031 23.265625 -31.21875 C 21.398438 -29.613281 20.46875 -26.789062 20.46875 -22.75 L 20.46875 0 L 5.453125 0 L 5.453125 -49.015625 L 20.46875 -49.015625 Z M 20.46875 -40.84375 "/></g></g></g><g fill="#ffffff" fill-opacity="1"><g transform="translate(345.955369, 234.835122)"><g><path d="M 35.390625 0 L 20.46875 -20.546875 L 20.46875 0 L 5.453125 0 L 5.453125 -65 L 20.46875 -65 L 20.46875 -29.078125 L 35.3125 -49.015625 L 53.84375 -49.015625 L 33.46875 -24.421875 L 54.015625 0 Z M 35.390625 0 "/></g></g></g><g fill="#ffffff" fill-opacity="1"><g transform="translate(54.787428, 332.90351)"><g><path d="M 52.4375 -41.8125 C 52.4375 -38.238281 51.613281 -34.972656 49.96875 -32.015625 C 48.332031 -29.054688 45.816406 -26.664062 42.421875 -24.84375 C 39.023438 -23.03125 34.8125 -22.125 29.78125 -22.125 L 20.46875 -22.125 L 20.46875 0 L 5.453125 0 L 5.453125 -61.65625 L 29.78125 -61.65625 C 34.695312 -61.65625 38.851562 -60.804688 42.25 -59.109375 C 45.644531 -57.410156 48.191406 -55.066406 49.890625 -52.078125 C 51.585938 -49.097656 52.4375 -45.675781 52.4375 -41.8125 Z M 28.625 -34.078125 C 31.5 -34.078125 33.640625 -34.75 35.046875 -36.09375 C 36.453125 -37.445312 37.15625 -39.351562 37.15625 -41.8125 C 37.15625 -44.269531 36.453125 -46.171875 35.046875 -47.515625 C 33.640625 -48.859375 31.5 -49.53125 28.625 -49.53125 L 20.46875 -49.53125 L 20.46875 -34.078125 Z M 28.625 -34.078125 "/></g></g></g><g fill="#ffffff" fill-opacity="1"><g transform="translate(109.595517, 332.90351)"><g><path d="M 20.46875 -40.84375 C 22.21875 -43.53125 24.410156 -45.648438 27.046875 -47.203125 C 29.679688 -48.753906 32.609375 -49.53125 35.828125 -49.53125 L 35.828125 -33.640625 L 31.703125 -33.640625 C 27.953125 -33.640625 25.140625 -32.832031 23.265625 -31.21875 C 21.398438 -29.613281 20.46875 -26.789062 20.46875 -22.75 L 20.46875 0 L 5.453125 0 L 5.453125 -49.015625 L 20.46875 -49.015625 Z M 20.46875 -40.84375 "/></g></g></g><g fill="#ffffff" fill-opacity="1"><g transform="translate(147.188245, 332.90351)"><g><path d="M 27.75 0.703125 C 22.945312 0.703125 18.628906 -0.320312 14.796875 -2.375 C 10.960938 -4.425781 7.945312 -7.351562 5.75 -11.15625 C 3.550781 -14.957031 2.453125 -19.40625 2.453125 -24.5 C 2.453125 -29.539062 3.566406 -33.976562 5.796875 -37.8125 C 8.023438 -41.644531 11.070312 -44.582031 14.9375 -46.625 C 18.800781 -48.675781 23.128906 -49.703125 27.921875 -49.703125 C 32.722656 -49.703125 37.054688 -48.675781 40.921875 -46.625 C 44.785156 -44.582031 47.832031 -41.644531 50.0625 -37.8125 C 52.289062 -33.976562 53.40625 -29.539062 53.40625 -24.5 C 53.40625 -19.46875 52.273438 -15.035156 50.015625 -11.203125 C 47.765625 -7.367188 44.691406 -4.425781 40.796875 -2.375 C 36.898438 -0.320312 32.550781 0.703125 27.75 0.703125 Z M 27.75 -12.296875 C 30.625 -12.296875 33.070312 -13.347656 35.09375 -15.453125 C 37.113281 -17.566406 38.125 -20.582031 38.125 -24.5 C 38.125 -28.425781 37.140625 -31.441406 35.171875 -33.546875 C 33.210938 -35.660156 30.796875 -36.71875 27.921875 -36.71875 C 24.992188 -36.71875 22.5625 -35.675781 20.625 -33.59375 C 18.695312 -31.507812 17.734375 -28.476562 17.734375 -24.5 C 17.734375 -20.582031 18.6875 -17.566406 20.59375 -15.453125 C 22.5 -13.347656 24.882812 -12.296875 27.75 -12.296875 Z M 27.75 -12.296875 "/></g></g></g><g fill="#ffffff" fill-opacity="1"><g transform="translate(203.13816, 332.90351)"><g><path d="M 30.03125 -36.53125 L 21.953125 -36.53125 L 21.953125 0 L 6.9375 0 L 6.9375 -36.53125 L 1.5 -36.53125 L 1.5 -49.015625 L 6.9375 -49.015625 L 6.9375 -50.40625 C 6.9375 -56.4375 8.660156 -61.019531 12.109375 -64.15625 C 15.566406 -67.289062 20.632812 -68.859375 27.3125 -68.859375 C 28.425781 -68.859375 29.25 -68.828125 29.78125 -68.765625 L 29.78125 -56.03125 C 26.90625 -56.207031 24.878906 -55.796875 23.703125 -54.796875 C 22.535156 -53.804688 21.953125 -52.023438 21.953125 -49.453125 L 21.953125 -49.015625 L 30.03125 -49.015625 Z M 30.03125 -36.53125 "/></g></g></g><g fill="#ffffff" fill-opacity="1"><g transform="translate(234.758211, 332.90351)"><g><path d="M 13 -54.109375 C 10.363281 -54.109375 8.210938 -54.878906 6.546875 -56.421875 C 4.878906 -57.972656 4.046875 -59.894531 4.046875 -62.1875 C 4.046875 -64.53125 4.878906 -66.472656 6.546875 -68.015625 C 8.210938 -69.566406 10.363281 -70.34375 13 -70.34375 C 15.570312 -70.34375 17.691406 -69.566406 19.359375 -68.015625 C 21.035156 -66.472656 21.875 -64.53125 21.875 -62.1875 C 21.875 -59.894531 21.035156 -57.972656 19.359375 -56.421875 C 17.691406 -54.878906 15.570312 -54.109375 13 -54.109375 Z M 20.46875 -49.015625 L 20.46875 0 L 5.453125 0 L 5.453125 -49.015625 Z M 20.46875 -49.015625 "/></g></g></g><g fill="#ffffff" fill-opacity="1"><g transform="translate(260.669089, 332.90351)"><g><path d="M 20.46875 -65 L 20.46875 0 L 5.453125 0 L 5.453125 -65 Z M 20.46875 -65 "/></g></g></g><g fill="#ffffff" fill-opacity="1"><g transform="translate(286.579966, 332.90351)"><g><path d="M 51.640625 -25.296875 C 51.640625 -23.890625 51.550781 -22.425781 51.375 -20.90625 L 17.390625 -20.90625 C 17.617188 -17.863281 18.597656 -15.535156 20.328125 -13.921875 C 22.054688 -12.304688 24.179688 -11.5 26.703125 -11.5 C 30.453125 -11.5 33.054688 -13.082031 34.515625 -16.25 L 50.5 -16.25 C 49.675781 -13.03125 48.195312 -10.128906 46.0625 -7.546875 C 43.925781 -4.972656 41.25 -2.953125 38.03125 -1.484375 C 34.8125 -0.0234375 31.210938 0.703125 27.234375 0.703125 C 22.429688 0.703125 18.15625 -0.320312 14.40625 -2.375 C 10.65625 -4.425781 7.722656 -7.351562 5.609375 -11.15625 C 3.503906 -14.957031 2.453125 -19.40625 2.453125 -24.5 C 2.453125 -29.59375 3.488281 -34.039062 5.5625 -37.84375 C 7.644531 -41.65625 10.5625 -44.582031 14.3125 -46.625 C 18.0625 -48.675781 22.367188 -49.703125 27.234375 -49.703125 C 31.972656 -49.703125 36.1875 -48.707031 39.875 -46.71875 C 43.5625 -44.726562 46.441406 -41.890625 48.515625 -38.203125 C 50.597656 -34.515625 51.640625 -30.210938 51.640625 -25.296875 Z M 36.265625 -29.25 C 36.265625 -31.820312 35.382812 -33.867188 33.625 -35.390625 C 31.875 -36.910156 29.679688 -37.671875 27.046875 -37.671875 C 24.535156 -37.671875 22.414062 -36.9375 20.6875 -35.46875 C 18.957031 -34.007812 17.890625 -31.9375 17.484375 -29.25 Z M 36.265625 -29.25 "/></g></g></g></svg>